<?xml version="1.0" encoding="UTF-8"?>
<svg version="1.1" xmlns="http://www.w3.org/2000/svg" width="400" height="406">
<path d="M0 0 C132 0 264 0 400 0 C400 133.98 400 267.96 400 406 C268 406 136 406 0 406 C0 272.02 0 138.04 0 0 Z " fill="#0B609C" transform="translate(0,0)"/>
<path d="M0 0 C117.15 0 234.3 0 355 0 C355 118.14 355 236.28 355 358 C354.01 358 353.02 358 352 358 C352 359.98 352 361.96 352 364 C350.02 364 348.04 364 346 364 C346 367.96 346 371.92 346 376 C344.02 376 342.04 376 340 376 C340 377.32 340 378.64 340 380 C338.02 380 336.04 380 334 380 C334 381.98 334 383.96 334 386 C330.04 386 326.08 386 322 386 C322 387.98 322 389.96 322 392 C305.83 392 289.66 392 273 392 C273 386.72 273 381.44 273 376 C271.02 376 269.04 376 267 376 C267 372.04 267 368.08 267 364 C265.02 364 263.04 364 261 364 C261 360.04 261 356.08 261 352 C259.02 352 257.04 352 255 352 C255 348.04 255 344.08 255 340 C253.02 340 251.04 340 249 340 C249 335.71 249 331.42 249 327 C247.02 327 245.04 327 243 327 C243 325.02 243 323.04 243 321 C241.02 321 239.04 321 237 321 C237 317.04 237 313.08 237 309 C235.02 309 233.04 309 231 309 C231 307.02 231 305.04 231 303 C229.02 303 227.04 303 225 303 C225 301.02 225 299.04 225 297 C223.02 297 221.04 297 219 297 C219 293.04 219 289.08 219 285 C217.02 285 215.04 285 213 285 C213 283.02 213 281.04 213 279 C214.98 279 216.96 279 219 279 C219 277.02 219 275.04 219 273 C220.98 273 222.96 273 225 273 C225 271.02 225 269.04 225 267 C226.98 267 228.96 267 231 267 C231 265.02 231 263.04 231 261 C232.98 261 234.96 261 237 261 C237 257.04 237 253.08 237 249 C238.98 249 240.96 249 243 249 C243 245.04 243 241.08 243 237 C244.98 237 246.96 237 249 237 C249 235.02 249 233.04 249 231 C250.98 231 252.96 231 255 231 C255 226.71 255 222.42 255 218 C256.98 218 258.96 218 261 218 C261 214.04 261 210.08 261 206 C262.98 206 264.96 206 267 206 C267 202.04 267 198.08 267 194 C268.98 194 270.96 194 273 194 C273 190.04 273 186.08 273 182 C274.98 182 276.96 182 279 182 C279 178.04 279 174.08 279 170 C280.98 170 282.96 170 285 170 C285 164.06 285 158.12 285 152 C286.98 152 288.96 152 291 152 C291 145.73 291 139.46 291 133 C292.98 133 294.96 133 297 133 C297 123.43 297 113.86 297 104 C295.02 104 293.04 104 291 104 C291 99.71 291 95.42 291 91 C289.02 91 287.04 91 285 91 C285 89.35 285 87.7 285 86 C283.02 86 281.04 86 279 86 C279 84.02 279 82.04 279 80 C275.04 80 271.08 80 267 80 C267 77.69 267 75.38 267 73 C261.06 73 255.12 73 249 73 C249 74.98 249 76.96 249 79 C243.06 79 237.12 79 231 79 C231 81.31 231 83.62 231 86 C225.06 86 219.12 86 213 86 C213 87.98 213 89.96 213 92 C209.04 92 205.08 92 201 92 C201 93.98 201 95.96 201 98 C197.04 98 193.08 98 189 98 C189 99.98 189 101.96 189 104 C184.71 104 180.42 104 176 104 C176 105.98 176 107.96 176 110 C172.37 110 168.74 110 165 110 C165 111.98 165 113.96 165 116 C163.02 116 161.04 116 159 116 C159 117.98 159 119.96 159 122 C154.71 122 150.42 122 146 122 C146 123.98 146 125.96 146 128 C144.02 128 142.04 128 140 128 C140 129.98 140 131.96 140 134 C136.04 134 132.08 134 128 134 C128 135.98 128 137.96 128 140 C121.73 140 115.46 140 109 140 C109 138.02 109 136.04 109 134 C107.02 134 105.04 134 103 134 C103 132.02 103 130.04 103 128 C101.02 128 99.04 128 97 128 C97 126.02 97 124.04 97 122 C93.04 122 89.08 122 85 122 C85 120.02 85 118.04 85 116 C81.04 116 77.08 116 73 116 C73 114.02 73 112.04 73 110 C71.02 110 69.04 110 67 110 C67 108.02 67 106.04 67 104 C63.04 104 59.08 104 55 104 C55 101.69 55 99.38 55 97 C51.04 97 47.08 97 43 97 C43 95.02 43 93.04 43 91 C39.04 91 35.08 91 31 91 C31 89.02 31 87.04 31 85 C27.04 85 23.08 85 19 85 C19 83.02 19 81.04 19 79 C15.04 79 11.08 79 7 79 C7 77.02 7 75.04 7 73 C0.73 73 -5.54 73 -12 73 C-12 71.02 -12 69.04 -12 67 C-17.94 67 -23.88 67 -30 67 C-30 65.02 -30 63.04 -30 61 C-31.98 61 -33.96 61 -36 61 C-36 53.08 -36 45.16 -36 37 C-34.02 37 -32.04 37 -30 37 C-30 33.04 -30 29.08 -30 25 C-28.02 25 -26.04 25 -24 25 C-24 22.69 -24 20.38 -24 18 C-22.02 18 -20.04 18 -18 18 C-18 16.02 -18 14.04 -18 12 C-16.02 12 -14.04 12 -12 12 C-12 10.02 -12 8.04 -12 6 C-8.04 6 -4.08 6 0 6 C0 4.02 0 2.04 0 0 Z " fill="#095F9C" transform="translate(36,6)"/>
<path d="M0 0 C132 0 264 0 400 0 C400 133.98 400 267.96 400 406 C268 406 136 406 0 406 C0 392.14 0 378.28 0 364 C1.98 364 3.96 364 6 364 C6 367.96 6 371.92 6 376 C7.98 376 9.96 376 12 376 C12 377.98 12 379.96 12 382 C13.98 382 15.96 382 18 382 C18 383.98 18 385.96 18 388 C19.98 388 21.96 388 24 388 C24 389.32 24 390.64 24 392 C32.25 392 40.5 392 49 392 C49 390.68 49 389.36 49 388 C52.96 388 56.92 388 61 388 C61 386.02 61 384.04 61 382 C66.94 382 72.88 382 79 382 C79 380.02 79 378.04 79 376 C82.96 376 86.92 376 91 376 C91 374.02 91 372.04 91 370 C94.96 370 98.92 370 103 370 C103 368.02 103 366.04 103 364 C106.96 364 110.92 364 115 364 C115 362.02 115 360.04 115 358 C119.29 358 123.58 358 128 358 C128 356.02 128 354.04 128 352 C129.98 352 131.96 352 134 352 C134 350.02 134 348.04 134 346 C137.96 346 141.92 346 146 346 C146 344.02 146 342.04 146 340 C149.96 340 153.92 340 158 340 C158 338.02 158 336.04 158 334 C159.98 334 161.96 334 164 334 C164 332.02 164 330.04 164 328 C165.98 328 167.96 328 170 328 C170 325.69 170 323.38 170 321 C173.96 321 177.92 321 182 321 C182 323.31 182 325.62 182 328 C180.02 328 178.04 328 176 328 C176 329.98 176 331.96 176 334 C174.02 334 172.04 334 170 334 C170 335.65 170 337.3 170 339 C168.02 339 166.04 339 164 339 C164 340.98 164 342.96 164 345 C161.69 345 159.38 345 157 345 C157 346.98 157 348.96 157 351 C153.04 351 149.08 351 145 351 C145 352.98 145 354.96 145 357 C143.02 357 141.04 357 139 357 C139 358.98 139 360.96 139 363 C137.02 363 135.04 363 133 363 C133 364.98 133 366.96 133 369 C131.02 369 129.04 369 127 369 C127 371.31 127 373.62 127 376 C123.04 376 119.08 376 115 376 C115 377.98 115 379.96 115 382 C113.02 382 111.04 382 109 382 C109 383.98 109 385.96 109 388 C107.02 388 105.04 388 103 388 C103 388.99 103 389.98 103 391 C101.02 391 99.04 391 97 391 C97 391.99 97 392.98 97 394 C95.02 394 93.04 394 91 394 C91 395.32 91 396.64 91 398 C143.14 398 195.28 398 249 398 C249 396.02 249 394.04 249 392 C250.98 392 252.96 392 255 392 C255 376.49 255 360.98 255 345 C253.02 345 251.04 345 249 345 C249 339.06 249 333.12 249 327 C247.02 327 245.04 327 243 327 C243 321.06 243 315.12 243 309 C241.02 309 239.04 309 237 309 C237 305.04 237 301.08 237 297 C235.02 297 233.04 297 231 297 C231 293.04 231 289.08 231 285 C229.02 285 227.04 285 225 285 C225 281.04 225 277.08 225 273 C222.69 273 220.38 273 218 273 C218 271.02 218 269.04 218 267 C216.02 267 214.04 267 212 267 C212 263.04 212 259.08 212 255 C210.02 255 208.04 255 206 255 C206 253.02 206 251.04 206 249 C204.02 249 202.04 249 200 249 C200 245.04 200 241.08 200 237 C198.02 237 196.04 237 194 237 C194 235.02 194 233.04 194 231 C192.02 231 190.04 231 188 231 C188 226.71 188 222.42 188 218 C189.98 218 191.96 218 194 218 C194 220.31 194 222.62 194 225 C195.98 225 197.96 225 200 225 C200 226.98 200 228.96 200 231 C201.98 231 203.96 231 206 231 C206 232.98 206 234.96 206 237 C207.98 237 209.96 237 212 237 C212 240.96 212 244.92 212 249 C213.98 249 215.96 249 218 249 C218 250.98 218 252.96 218 255 C219.98 255 221.96 255 224 255 C224 256.98 224 258.96 224 261 C225.98 261 227.96 261 230 261 C230 262.98 230 264.96 230 267 C231.98 267 233.96 267 236 267 C236 270.96 236 274.92 236 279 C240.29 279 244.58 279 249 279 C249 275.04 249 271.08 249 267 C250.98 267 252.96 267 255 267 C255 263.04 255 259.08 255 255 C256.98 255 258.96 255 261 255 C261 249.06 261 243.12 261 237 C262.98 237 264.96 237 267 237 C267 233.04 267 229.08 267 225 C268.98 225 270.96 225 273 225 C273 214.77 273 204.54 273 194 C274.98 194 276.96 194 279 194 C279 188.06 279 182.12 279 176 C277.02 176 275.04 176 273 176 C273 170.06 273 164.12 273 158 C271.02 158 269.04 158 267 158 C267 156.02 267 154.04 267 152 C265.02 152 263.04 152 261 152 C261 150.02 261 148.04 261 146 C257.04 146 253.08 146 249 146 C249 143.69 249 141.38 249 139 C240.75 139 232.5 139 224 139 C224 141.31 224 143.62 224 146 C216.08 146 208.16 146 200 146 C200 147.98 200 149.96 200 152 C194.06 152 188.12 152 182 152 C182 153.98 182 155.96 182 158 C178.04 158 174.08 158 170 158 C170 159.98 170 161.96 170 164 C165.71 164 161.42 164 157 164 C157 165.98 157 167.96 157 170 C153.04 170 149.08 170 145 170 C145 171.98 145 173.96 145 176 C143.35 176 141.7 176 140 176 C140 177.98 140 179.96 140 182 C135.71 182 131.42 182 127 182 C127 183.98 127 185.96 127 188 C125.02 188 123.04 188 121 188 C121 189.98 121 191.96 121 194 C117.04 194 113.08 194 109 194 C109 195.98 109 197.96 109 200 C107.02 200 105.04 200 103 200 C103 201.98 103 203.96 103 206 C99.04 206 95.08 206 91 206 C91 204.02 91 202.04 91 200 C92.98 200 94.96 200 97 200 C97 198.02 97 196.04 97 194 C98.98 194 100.96 194 103 194 C103 192.02 103 190.04 103 188 C104.98 188 106.96 188 109 188 C109 186.02 109 184.04 109 182 C110.98 182 112.96 182 115 182 C115 180.02 115 178.04 115 176 C119.29 176 123.58 176 128 176 C128 174.02 128 172.04 128 170 C129.98 170 131.96 170 134 170 C134 168.02 134 166.04 134 164 C135.98 164 137.96 164 140 164 C140 162.02 140 160.04 140 158 C141.98 158 143.96 158 146 158 C146 156.02 146 154.04 146 152 C141.71 152 137.42 152 133 152 C133 150.02 133 148.04 133 146 C129.04 146 125.08 146 121 146 C121 144.02 121 142.04 121 140 C117.04 140 113.08 140 109 140 C109 138.02 109 136.04 109 134 C103.06 134 97.12 134 91 134 C91 132.02 91 130.04 91 128 C83.08 128 75.16 128 67 128 C67 125.69 67 123.38 67 121 C56.77 121 46.54 121 36 121 C36 122.98 36 124.96 36 127 C32.04 127 28.08 127 24 127 C24 129.31 24 131.62 24 134 C22.02 134 20.04 134 18 134 C18 135.98 18 137.96 18 140 C16.02 140 14.04 140 12 140 C12 143.96 12 147.92 12 152 C10.02 152 8.04 152 6 152 C6 161.9 6 171.8 6 182 C7.98 182 9.96 182 12 182 C12 187.94 12 193.88 12 200 C13.98 200 15.96 200 18 200 C18 203.96 18 207.92 18 212 C19.98 212 21.96 212 24 212 C24 216.29 24 220.58 24 225 C25.98 225 27.96 225 30 225 C30 228.96 30 232.92 30 237 C31.98 237 33.96 237 36 237 C36 240.96 36 244.92 36 249 C37.98 249 39.96 249 42 249 C42 252.96 42 256.92 42 261 C43.98 261 45.96 261 48 261 C48 264.96 48 268.92 48 273 C50.31 273 52.62 273 55 273 C55 274.98 55 276.96 55 279 C56.98 279 58.96 279 61 279 C61 282.96 61 286.92 61 291 C62.98 291 64.96 291 67 291 C67 292.98 67 294.96 67 297 C68.98 297 70.96 297 73 297 C73 300.96 73 304.92 73 309 C71.02 309 69.04 309 67 309 C67 307.02 67 305.04 67 303 C65.02 303 63.04 303 61 303 C61 301.02 61 299.04 61 297 C59.02 297 57.04 297 55 297 C55 295.02 55 293.04 55 291 C53.02 291 51.04 291 49 291 C49 287.04 49 283.08 49 279 C46.69 279 44.38 279 42 279 C42 277.02 42 275.04 42 273 C40.35 273 38.7 273 37 273 C37 271.02 37 269.04 37 267 C35.02 267 33.04 267 31 267 C30.67 265.02 30.34 263.04 30 261 C28.35 260.67 26.7 260.34 25 260 C25 256.37 25 252.74 25 249 C22.69 249 20.38 249 18 249 C18 247.02 18 245.04 18 243 C16.02 243 14.04 243 12 243 C12 241.02 12 239.04 12 237 C10.02 237 8.04 237 6 237 C6 232.71 6 228.42 6 224 C4.02 224 2.04 224 0 224 C0 172.19 0 120.38 0 67 C1.98 67 3.96 67 6 67 C6 68.98 6 70.96 6 73 C11.94 73 17.88 73 24 73 C24 74.98 24 76.96 24 79 C30.27 79 36.54 79 43 79 C43 80.98 43 82.96 43 85 C46.96 85 50.92 85 55 85 C55 86.98 55 88.96 55 91 C58.96 91 62.92 91 67 91 C67 92.98 67 94.96 67 97 C70.96 97 74.92 97 79 97 C79 98.98 79 100.96 79 103 C82.96 103 86.92 103 91 103 C91 105.31 91 107.62 91 110 C94.96 110 98.92 110 103 110 C103 111.98 103 113.96 103 116 C104.98 116 106.96 116 109 116 C109 117.98 109 119.96 109 122 C112.96 122 116.92 122 121 122 C121 123.98 121 125.96 121 128 C124.96 128 128.92 128 133 128 C133 129.98 133 131.96 133 134 C134.98 134 136.96 134 139 134 C139 135.98 139 137.96 139 140 C140.98 140 142.96 140 145 140 C145 141.98 145 143.96 145 146 C151.27 146 157.54 146 164 146 C164 144.02 164 142.04 164 140 C167.96 140 171.92 140 176 140 C176 138.02 176 136.04 176 134 C177.98 134 179.96 134 182 134 C182 132.02 182 130.04 182 128 C186.29 128 190.58 128 195 128 C195 126.02 195 124.04 195 122 C196.98 122 198.96 122 201 122 C201 120.02 201 118.04 201 116 C204.63 116 208.26 116 212 116 C212 114.02 212 112.04 212 110 C216.29 110 220.58 110 225 110 C225 108.02 225 106.04 225 104 C228.96 104 232.92 104 237 104 C237 102.02 237 100.04 237 98 C240.96 98 244.92 98 249 98 C249 96.02 249 94.04 249 92 C254.94 92 260.88 92 267 92 C267 89.69 267 87.38 267 85 C272.94 85 278.88 85 285 85 C285 83.02 285 81.04 285 79 C290.94 79 296.88 79 303 79 C303 81.31 303 83.62 303 86 C306.96 86 310.92 86 315 86 C315 87.98 315 89.96 315 92 C316.98 92 318.96 92 321 92 C321 93.65 321 95.3 321 97 C322.98 97 324.96 97 327 97 C327 101.29 327 105.58 327 110 C328.98 110 330.96 110 333 110 C333 119.57 333 129.14 333 139 C331.02 139 329.04 139 327 139 C327 145.27 327 151.54 327 158 C325.02 158 323.04 158 321 158 C321 163.94 321 169.88 321 176 C319.02 176 317.04 176 315 176 C315 179.96 315 183.92 315 188 C313.02 188 311.04 188 309 188 C309 191.96 309 195.92 309 200 C307.02 200 305.04 200 303 200 C303 203.96 303 207.92 303 212 C301.02 212 299.04 212 297 212 C297 215.96 297 219.92 297 224 C295.02 224 293.04 224 291 224 C291 228.29 291 232.58 291 237 C289.02 237 287.04 237 285 237 C285 238.98 285 240.96 285 243 C283.02 243 281.04 243 279 243 C279 246.96 279 250.92 279 255 C277.02 255 275.04 255 273 255 C273 258.96 273 262.92 273 267 C271.02 267 269.04 267 267 267 C267 268.98 267 270.96 267 273 C265.02 273 263.04 273 261 273 C261 274.98 261 276.96 261 279 C259.02 279 257.04 279 255 279 C255 280.98 255 282.96 255 285 C253.02 285 251.04 285 249 285 C249 286.98 249 288.96 249 291 C250.98 291 252.96 291 255 291 C255 294.96 255 298.92 255 303 C256.98 303 258.96 303 261 303 C261 304.98 261 306.96 261 309 C262.98 309 264.96 309 267 309 C267 310.98 267 312.96 267 315 C268.98 315 270.96 315 273 315 C273 318.96 273 322.92 273 327 C274.98 327 276.96 327 279 327 C279 328.98 279 330.96 279 333 C280.98 333 282.96 333 285 333 C285 337.29 285 341.58 285 346 C286.98 346 288.96 346 291 346 C291 349.96 291 353.92 291 358 C292.98 358 294.96 358 297 358 C297 361.96 297 365.92 297 370 C298.98 370 300.96 370 303 370 C303 373.96 303 377.92 303 382 C304.98 382 306.96 382 309 382 C309 387.28 309 392.56 309 398 C325.17 398 341.34 398 358 398 C358 396.02 358 394.04 358 392 C361.96 392 365.92 392 370 392 C370 390.02 370 388.04 370 386 C371.98 386 373.96 386 376 386 C376 384.68 376 383.36 376 382 C377.98 382 379.96 382 382 382 C382 378.04 382 374.08 382 370 C383.98 370 385.96 370 388 370 C388 368.02 388 366.04 388 364 C388.99 364 389.98 364 391 364 C391 245.86 391 127.72 391 6 C273.85 6 156.7 6 36 6 C36 7.98 36 9.96 36 12 C32.04 12 28.08 12 24 12 C24 13.98 24 15.96 24 18 C22.02 18 20.04 18 18 18 C18 19.98 18 21.96 18 24 C16.02 24 14.04 24 12 24 C12 26.31 12 28.62 12 31 C10.02 31 8.04 31 6 31 C6 34.96 6 38.92 6 43 C4.02 43 2.04 43 0 43 C0 28.81 0 14.62 0 0 Z " fill="#FBFCFB" transform="translate(0,0)"/>
<path d="M0 0 C27.72 0 55.44 0 84 0 C84 1.98 84 3.96 84 6 C85.98 6 87.96 6 90 6 C90 7.98 90 9.96 90 12 C91.98 12 93.96 12 96 12 C96 31.8 96 51.6 96 72 C90.06 72 84.12 72 78 72 C78 70.02 78 68.04 78 66 C76.02 66 74.04 66 72 66 C72 67.98 72 69.96 72 72 C48.24 72 24.48 72 0 72 C0 48.24 0 24.48 0 0 Z " fill="#055B9A" transform="translate(116,243)"/>
<path d="M0 0 C4.29 0 8.58 0 13 0 C13 11.88 13 23.76 13 36 C20.92 36 28.84 36 37 36 C37 28.41 37 20.82 37 13 C45.25 13 53.5 13 62 13 C62.14806378 38.31890661 62.14806378 38.31890661 61 49 C62.98 49 64.96 49 67 49 C67 50.98 67 52.96 67 55 C68.98 55 70.96 55 73 55 C73 56.98 73 58.96 73 61 C45.28 61 17.56 61 -11 61 C-11 68.59 -11 76.18 -11 84 C-10.01 84.33 -9.02 84.66 -8 85 C-8.99 85 -9.98 85 -11 85 C-11 100.84 -11 116.68 -11 133 C12.76 133 36.52 133 61 133 C61 131.02 61 129.04 61 127 C62.98 127 64.96 127 67 127 C67 128.98 67 130.96 67 133 C72.94 133 78.88 133 85 133 C85 117.16 85 101.32 85 85 C86.98 85 88.96 85 91 85 C91 86.98 91 88.96 91 91 C93.31 91 95.62 91 98 91 C98 105.19 98 119.38 98 134 C94.04 134 90.08 134 86 134 C86 135.65 86 137.3 86 139 C85.67 139 85.34 139 85 139 C85 137.35 85 135.7 85 134 C77.08 134 69.16 134 61 134 C61 135.65 61 137.3 61 139 C55.06 139 49.12 139 43 139 C43 141.31 43 143.62 43 146 C41.02 146 39.04 146 37 146 C37 147.98 37 149.96 37 152 C35.02 152 33.04 152 31 152 C31 153.98 31 155.96 31 158 C27.04 158 23.08 158 19 158 C19 159.98 19 161.96 19 164 C15.04 164 11.08 164 7 164 C7 165.98 7 167.96 7 170 C5.02 170 3.04 170 1 170 C1 171.98 1 173.96 1 176 C-3.29 176 -7.58 176 -12 176 C-12 177.98 -12 179.96 -12 182 C-15.96 182 -19.92 182 -24 182 C-24 183.98 -24 185.96 -24 188 C-27.96 188 -31.92 188 -36 188 C-36 186.02 -36 184.04 -36 182 C-37.65 182 -39.3 182 -41 182 C-41 181.67 -41 181.34 -41 181 C-39.35 181 -37.7 181 -36 181 C-36 173.41 -36 165.82 -36 158 C-36.99 157.67 -37.98 157.34 -39 157 C-38.01 157 -37.02 157 -36 157 C-36 153.37 -36 149.74 -36 146 C-37.98 146 -39.96 146 -42 146 C-42 143.69 -42 141.38 -42 139 C-39.69 139 -37.38 139 -35 139 C-35 144.94 -35 150.88 -35 157 C-27.41 157 -19.82 157 -12 157 C-12 149.41 -12 141.82 -12 134 C-12.66 133.67 -13.32 133.34 -14 133 C-13.34 133 -12.68 133 -12 133 C-12 101.32 -12 69.64 -12 37 C-19.92 37.33 -27.84 37.66 -36 38 C-37.65 37.67 -39.3 37.34 -41 37 C-41 36.67 -41 36.34 -41 36 C-39.35 36 -37.7 36 -36 36 C-36 34.35 -36 32.7 -36 31 C-37.98 31 -39.96 31 -42 31 C-42 32.98 -42 34.96 -42 37 C-43.98 37 -45.96 37 -48 37 C-48 38.98 -48 40.96 -48 43 C-49.98 43 -51.96 43 -54 43 C-54 40.69 -54 38.38 -54 36 C-52.02 36 -50.04 36 -48 36 C-48 34.02 -48 32.04 -48 30 C-46.02 30 -44.04 30 -42 30 C-42 28.35 -42 26.7 -42 25 C-40.02 25 -38.04 25 -36 25 C-35.67 28.63 -35.34 32.26 -35 36 C-27.41 36 -19.82 36 -12 36 C-12 28.41 -12 20.82 -12 13 C-13.98 13 -15.96 13 -18 13 C-18 12.67 -18 12.34 -18 12 C-14.04 12 -10.08 12 -6 12 C-6 10.02 -6 8.04 -6 6 C-4.02 6 -2.04 6 0 6 C0 4.02 0 2.04 0 0 Z " fill="#1B6AA2" transform="translate(127,182)"/>
<path d="M0 0 C29.7 0 59.4 0 90 0 C90 15.84 90 31.68 90 48 C60.3 48 30.6 48 0 48 C0 46.02 0 44.04 0 42 C-1.98 42 -3.96 42 -6 42 C-6 40.02 -6 38.04 -6 36 C-7.98 36 -9.96 36 -12 36 C-12 32.04 -12 28.08 -12 24 C-13.98 24 -15.96 24 -18 24 C-18 22.02 -18 20.04 -18 18 C-16.02 18 -14.04 18 -12 18 C-12 16.02 -12 14.04 -12 12 C-10.02 12 -8.04 12 -6 12 C-6 10.02 -6 8.04 -6 6 C-4.02 6 -2.04 6 0 6 C0 4.02 0 2.04 0 0 Z " fill="#055B9A" transform="translate(267,267)"/>
<path d="M0 0 C11.55 0 23.1 0 35 0 C35.495 2.97 35.495 2.97 36 6 C37.98 6 39.96 6 42 6 C42 20.85 42 35.7 42 51 C39.69 51 37.38 51 35 51 C35 52.98 35 54.96 35 57 C23.45 57 11.9 57 0 57 C0 38.19 0 19.38 0 0 Z " fill="#095E9B" transform="translate(213,340)"/>
<path d="M0 0 C1.98 0 3.96 0 6 0 C6 4.29 6 8.58 6 13 C7.98 13 9.96 13 12 13 C12 14.98 12 16.96 12 19 C13.98 19 15.96 19 18 19 C18 20.98 18 22.96 18 25 C20.31 25 22.62 25 25 25 C25 28.63 25 32.26 25 36 C26.65 36 28.3 36 30 36 C31 37 31 37 31.0625 40.0625 C31.041875 41.031875 31.02125 42.00125 31 43 C32.98 43 34.96 43 37 43 C37 44.98 37 46.96 37 49 C38.65 49 40.3 49 42 49 C42 50.98 42 52.96 42 55 C44.31 55 46.62 55 49 55 C49 58.96 49 62.92 49 67 C50.98 67 52.96 67 55 67 C55 68.98 55 70.96 55 73 C56.98 73 58.96 73 61 73 C61 74.98 61 76.96 61 79 C62.98 79 64.96 79 67 79 C67 80.98 67 82.96 67 85 C70.96 85 74.92 85 79 85 C79 86.98 79 88.96 79 91 C80.98 91 82.96 91 85 91 C85 92.98 85 94.96 85 97 C82.69 97 80.38 97 78 97 C78 95.35 78 93.7 78 92 C64.14 92 50.28 92 36 92 C36 83.42 36 74.84 36 66 C32.37 66 28.74 66 25 66 C25 58.41 25 50.82 25 43 C16.75 43 8.5 43 0 43 C0 28.81 0 14.62 0 0 Z " fill="#1D6EA5" transform="translate(0,224)"/>
<path d="M0 0 C0.33 0 0.66 0 1 0 C1 12.21 1 24.42 1 37 C4.63 37 8.26 37 12 37 C12 29.41 12 21.82 12 14 C12.33 14 12.66 14 13 14 C13 21.59 13 29.18 13 37 C16.63 37 20.26 37 24 37 C24 34.03 24 31.06 24 28 C24.33 28 24.66 28 25 28 C25 30.97 25 33.94 25 37 C48.76 37 72.52 37 97 37 C97 29.41 97 21.82 97 14 C97.33 14 97.66 14 98 14 C98 21.59 98 29.18 98 37 C105.59 37 113.18 37 121 37 C121 37.33 121 37.66 121 38 C113.41 38 105.82 38 98 38 C98 45.59 98 53.18 98 61 C103.28 61 108.56 61 114 61 C114 61.33 114 61.66 114 62 C108.72 62 103.44 62 98 62 C98 75.86 98 89.72 98 104 C96.02 104 94.04 104 92 104 C92 109.94 92 115.88 92 122 C91.67 122 91.34 122 91 122 C91 115.73 91 109.46 91 103 C92.98 103 94.96 103 97 103 C97 93.43 97 83.86 97 74 C95.02 74 93.04 74 91 74 C91 69.71 91 65.42 91 61 C89.02 61 87.04 61 85 61 C85 59.35 85 57.7 85 56 C83.02 56 81.04 56 79 56 C79 54.02 79 52.04 79 50 C75.04 50 71.08 50 67 50 C67 47.69 67 45.38 67 43 C61.06 43 55.12 43 49 43 C49 44.98 49 46.96 49 49 C43.06 49 37.12 49 31 49 C31 51.31 31 53.62 31 56 C25.06 56 19.12 56 13 56 C13 57.98 13 59.96 13 62 C9.04 62 5.08 62 1 62 C1 63.98 1 65.96 1 68 C-2.96 68 -6.92 68 -11 68 C-11 67.67 -11 67.34 -11 67 C-7.37 67 -3.74 67 0 67 C0 44.89 0 22.78 0 0 Z " fill="#327BAD" transform="translate(236,36)"/>
<path d="M0 0 C15.51 0 31.02 0 47 0 C47 5.61 47 11.22 47 17 C45.02 17 43.04 17 41 17 C41 18.98 41 20.96 41 23 C37.04 23 33.08 23 29 23 C29 24.98 29 26.96 29 29 C25.37 29.33 21.74 29.66 18 30 C17.67 31.65 17.34 33.3 17 35 C15.02 35 13.04 35 11 35 C11 36.98 11 38.96 11 41 C7.37 41 3.74 41 0 41 C0 27.47 0 13.94 0 0 Z " fill="#045B9A" transform="translate(116,316)"/>
<path d="M0 0 C0.33 0 0.66 0 1 0 C1 1.98 1 3.96 1 6 C2.65 6 4.3 6 6 6 C6 7.98 6 9.96 6 12 C8.31 12 10.62 12 13 12 C13 15.96 13 19.92 13 24 C14.98 24 16.96 24 19 24 C19 25.98 19 27.96 19 30 C20.98 30 22.96 30 25 30 C25 31.98 25 33.96 25 36 C26.98 36 28.96 36 31 36 C31 37.98 31 39.96 31 42 C34.96 42 38.92 42 43 42 C43 43.98 43 45.96 43 48 C44.98 48 46.96 48 49 48 C49 49.98 49 51.96 49 54 C46.69 54 44.38 54 42 54 C42 52.35 42 50.7 42 49 C28.14 49 14.28 49 0 49 C0 32.83 0 16.66 0 0 Z " fill="#2E76A7" transform="translate(36,267)"/>
<path d="M0 0 C6.6 0 13.2 0 20 0 C20 15.84 20 31.68 20 48 C13.4 48 6.8 48 0 48 C0 32.16 0 16.32 0 0 Z " fill="#055C9A" transform="translate(370,267)"/>
<path d="M0 0 C7.92 0 15.84 0 24 0 C24 3.96 24 7.92 24 12 C25.98 12 27.96 12 30 12 C30 13.98 30 15.96 30 18 C31.98 18 33.96 18 36 18 C36 19.65 36 21.3 36 23 C24.12 23 12.24 23 0 23 C0 15.41 0 7.82 0 0 Z " fill="#065C9B" transform="translate(164,219)"/>
<path d="M0 0 C7.59 0 15.18 0 23 0 C23 7.59 23 15.18 23 23 C15.41 23 7.82 23 0 23 C0 15.41 0 7.82 0 0 Z " fill="#045B9B" transform="translate(334,340)"/>
<path d="M0 0 C7.59 0 15.18 0 23 0 C23 7.59 23 15.18 23 23 C15.41 23 7.82 23 0 23 C0 15.41 0 7.82 0 0 Z " fill="#045B9A" transform="translate(310,340)"/>
<path d="M0 0 C7.59 0 15.18 0 23 0 C23 7.59 23 15.18 23 23 C15.41 23 7.82 23 0 23 C0 15.41 0 7.82 0 0 Z " fill="#045B9A" transform="translate(189,340)"/>
<path d="M0 0 C7.59 0 15.18 0 23 0 C23 7.59 23 15.18 23 23 C15.41 23 7.82 23 0 23 C0 15.41 0 7.82 0 0 Z " fill="#045C9A" transform="translate(92,340)"/>
<path d="M0 0 C7.59 0 15.18 0 23 0 C23 7.59 23 15.18 23 23 C15.41 23 7.82 23 0 23 C0 15.41 0 7.82 0 0 Z " fill="#055A9A" transform="translate(334,316)"/>
<path d="M0 0 C7.59 0 15.18 0 23 0 C23 7.59 23 15.18 23 23 C15.41 23 7.82 23 0 23 C0 15.41 0 7.82 0 0 Z " fill="#055A9A" transform="translate(310,316)"/>
<path d="M0 0 C7.59 0 15.18 0 23 0 C23 7.59 23 15.18 23 23 C15.41 23 7.82 23 0 23 C0 15.41 0 7.82 0 0 Z " fill="#045B9A" transform="translate(189,316)"/>
<path d="M0 0 C7.59 0 15.18 0 23 0 C23 7.59 23 15.18 23 23 C15.41 23 7.82 23 0 23 C0 15.41 0 7.82 0 0 Z " fill="#045C9B" transform="translate(140,219)"/>
<path d="M0 0 C7.59 0 15.18 0 23 0 C23 7.59 23 15.18 23 23 C15.41 23 7.82 23 0 23 C0 15.41 0 7.82 0 0 Z " fill="#065B9B" transform="translate(116,219)"/>
<path d="M0 0 C7.59 0 15.18 0 23 0 C23 7.59 23 15.18 23 23 C15.41 23 7.82 23 0 23 C0 15.41 0 7.82 0 0 Z " fill="#055C9B" transform="translate(92,219)"/>
<path d="M0 0 C7.59 0 15.18 0 23 0 C23 7.59 23 15.18 23 23 C15.41 23 7.82 23 0 23 C0 15.41 0 7.82 0 0 Z " fill="#055C9A" transform="translate(310,195)"/>
<path d="M0 0 C7.59 0 15.18 0 23 0 C23 7.59 23 15.18 23 23 C15.41 23 7.82 23 0 23 C0 15.41 0 7.82 0 0 Z " fill="#045C9B" transform="translate(116,195)"/>
<path d="M0 0 C7.59 0 15.18 0 23 0 C23 7.59 23 15.18 23 23 C15.41 23 7.82 23 0 23 C0 15.41 0 7.82 0 0 Z " fill="#045B9B" transform="translate(116,98)"/>
<path d="M0 0 C7.59 0 15.18 0 23 0 C23 7.59 23 15.18 23 23 C15.41 23 7.82 23 0 23 C0 15.41 0 7.82 0 0 Z " fill="#045C9B" transform="translate(189,74)"/>
<path d="M0 0 C7.59 0 15.18 0 23 0 C23 7.59 23 15.18 23 23 C15.41 23 7.82 23 0 23 C0 15.41 0 7.82 0 0 Z " fill="#055B9B" transform="translate(140,74)"/>
<path d="M0 0 C7.59 0 15.18 0 23 0 C23 7.59 23 15.18 23 23 C15.41 23 7.82 23 0 23 C0 15.41 0 7.82 0 0 Z " fill="#055B9B" transform="translate(116,74)"/>
<path d="M0 0 C3.63 0 7.26 0 11 0 C11 15.84 11 31.68 11 48 C7.37 48 3.74 48 0 48 C0 32.16 0 16.32 0 0 Z " fill="#055C9A" transform="translate(358,267)"/>
<path d="M0 0 C5.61 0 11.22 0 17 0 C17 1.98 17 3.96 17 6 C21.29 6 25.58 6 30 6 C30 7.98 30 9.96 30 12 C28.02 12 26.04 12 24 12 C24 13.98 24 15.96 24 18 C21.69 18 19.38 18 17 18 C17 19.65 17 21.3 17 23 C11.39 23 5.78 23 0 23 C0 15.41 0 7.82 0 0 Z " fill="#085D9A" transform="translate(116,146)"/>
<path d="M0 0 C9.9 0 19.8 0 30 0 C30 5.61 30 11.22 30 17 C20.1 17 10.2 17 0 17 C0 11.39 0 5.78 0 0 Z " fill="#035C9A" transform="translate(61,7)"/>
<path d="M0 0 C7.59 0 15.18 0 23 0 C23 7.59 23 15.18 23 23 C17.06 23 11.12 23 5 23 C5 21.02 5 19.04 5 17 C3.35 17 1.7 17 0 17 C0 11.39 0 5.78 0 0 Z " fill="#035C9A" transform="translate(189,292)"/>
<path d="M0 0 C7.59 0 15.18 0 23 0 C23 7.59 23 15.18 23 23 C17.39 23 11.78 23 6 23 C6 21.02 6 19.04 6 17 C4.02 17 2.04 17 0 17 C0 11.39 0 5.78 0 0 Z " fill="#045B9A" transform="translate(261,292)"/>
<path d="M0 0 C5.61 0 11.22 0 17 0 C17 1.98 17 3.96 17 6 C18.98 6 20.96 6 23 6 C23 11.61 23 17.22 23 23 C15.41 23 7.82 23 0 23 C0 15.41 0 7.82 0 0 Z " fill="#055C9A" transform="translate(1,243)"/>
<path d="M0 0 C7.59 0 15.18 0 23 0 C23 7.59 23 15.18 23 23 C17.39 23 11.78 23 6 23 C6 21.02 6 19.04 6 17 C4.02 17 2.04 17 0 17 C0 11.39 0 5.78 0 0 Z " fill="#045B9A" transform="translate(140,122)"/>
<path d="M0 0 C1.65 0 3.3 0 5 0 C5 1.98 5 3.96 5 6 C6.98 6 8.96 6 11 6 C11 19.86 11 33.72 11 48 C7.37 48 3.74 48 0 48 C0 32.16 0 16.32 0 0 Z " fill="#065C99" transform="translate(213,267)"/>
<path d="M0 0 C6.6 0 13.2 0 20 0 C20 7.59 20 15.18 20 23 C13.4 23 6.8 23 0 23 C0 15.41 0 7.82 0 0 Z " fill="#055B9B" transform="translate(370,340)"/>
<path d="M0 0 C6.6 0 13.2 0 20 0 C20 7.59 20 15.18 20 23 C13.4 23 6.8 23 0 23 C0 15.41 0 7.82 0 0 Z " fill="#055B9A" transform="translate(370,316)"/>
<path d="M0 0 C6.6 0 13.2 0 20 0 C20 7.59 20 15.18 20 23 C13.4 23 6.8 23 0 23 C0 15.41 0 7.82 0 0 Z " fill="#055C9B" transform="translate(370,98)"/>
<path d="M0 0 C7.59 0 15.18 0 23 0 C23 5.61 23 11.22 23 17 C19.04 17 15.08 17 11 17 C11 18.98 11 20.96 11 23 C7.37 23 3.74 23 0 23 C0 15.41 0 7.82 0 0 Z " fill="#065C9B" transform="translate(189,98)"/>
<path d="M0 0 C15.84 0 31.68 0 48 0 C48 2.97 48 5.94 48 9 C32.16 9 16.32 9 0 9 C0 6.03 0 3.06 0 0 Z " fill="#065B99" transform="translate(164,388)"/>
<path d="M0 0 C7.59 0 15.18 0 23 0 C23 7.59 23 15.18 23 23 C19.04 23 15.08 23 11 23 C11 21.02 11 19.04 11 17 C9.35 17 7.7 17 6 17 C6 15.02 6 13.04 6 11 C4.02 11 2.04 11 0 11 C0 7.37 0 3.74 0 0 Z " fill="#055D9B" transform="translate(310,74)"/>
<path d="M0 0 C1.65 0 3.3 0 5 0 C5 1.98 5 3.96 5 6 C6.98 6 8.96 6 11 6 C11 17.88 11 29.76 11 42 C7.37 42 3.74 42 0 42 C0 28.14 0 14.28 0 0 Z " fill="#065C99" transform="translate(37,273)"/>
<path d="M0 0 C3.63 0 7.26 0 11 0 C11 1.98 11 3.96 11 6 C12.98 6 14.96 6 17 6 C17 7.98 17 9.96 17 12 C18.98 12 20.96 12 23 12 C23 15.63 23 19.26 23 23 C15.41 23 7.82 23 0 23 C0 15.41 0 7.82 0 0 Z " fill="#055B9A" transform="translate(189,243)"/>
<path d="M0 0 C7.92 0 15.84 0 24 0 C24 7.59 24 15.18 24 23 C20.37 23 16.74 23 13 23 C13 21.35 13 19.7 13 18 C10.69 18 8.38 18 6 18 C6 14.04 6 10.08 6 6 C4.02 6 2.04 6 0 6 C0 4.02 0 2.04 0 0 Z " fill="#085D9A" transform="translate(285,340)"/>
<path d="M0 0 C3.96 0 7.92 0 12 0 C12 7.59 12 15.18 12 23 C4.08 23 -3.84 23 -12 23 C-12 21.35 -12 19.7 -12 18 C-10.02 18 -8.04 18 -6 18 C-6 13.71 -6 9.42 -6 5 C-4.02 5 -2.04 5 0 5 C0 3.35 0 1.7 0 0 Z " fill="#085D9B" transform="translate(297,219)"/>
<path d="M0 0 C3.96 0 7.92 0 12 0 C12 7.59 12 15.18 12 23 C4.41 23 -3.18 23 -11 23 C-11 21.35 -11 19.7 -11 18 C-9.35 18 -7.7 18 -6 18 C-6 14.04 -6 10.08 -6 6 C-4.02 6 -2.04 6 0 6 C0 4.02 0 2.04 0 0 Z " fill="#065C9A" transform="translate(12,25)"/>
<path d="M0 0 C7.59 0 15.18 0 23 0 C23 7.59 23 15.18 23 23 C19.04 23 15.08 23 11 23 C11 21.02 11 19.04 11 17 C9.02 17 7.04 17 5 17 C4.67 13.04 4.34 9.08 4 5 C2.68 4.67 1.36 4.34 0 4 C0 2.68 0 1.36 0 0 Z " fill="#045B99" transform="translate(68,292)"/>
<path d="M0 0 C0.33 0 0.66 0 1 0 C1 7.59 1 15.18 1 23 C8.59 23 16.18 23 24 23 C24 15.41 24 7.82 24 0 C24.33 0 24.66 0 25 0 C25 7.59 25 15.18 25 23 C40.84 23 56.68 23 73 23 C73 23.33 73 23.66 73 24 C65.41 24 57.82 24 50 24 C50 31.59 50 39.18 50 47 C57.59 47 65.18 47 73 47 C73 47.66 73 48.32 73 49 C65.41 49 57.82 49 50 49 C50 54.61 50 60.22 50 66 C49.34 66 48.68 66 48 66 C48 60.39 48 54.78 48 49 C40.41 49 32.82 49 25 49 C25 56.59 25 64.18 25 72 C24.67 72 24.34 72 24 72 C24 56.16 24 40.32 24 24 C16.41 24 8.82 24 1 24 C1 39.84 1 55.68 1 72 C0.67 72 0.34 72 0 72 C0 56.16 0 40.32 0 24 C-6.6 24 -13.2 24 -20 24 C-20 23.67 -20 23.34 -20 23 C-13.4 23 -6.8 23 0 23 C0 15.41 0 7.82 0 0 Z M25 24 C25 31.59 25 39.18 25 47 C32.59 47 40.18 47 48 47 C48.59385943 41.06140565 49.12488393 35.73908913 49.0625 29.875 C49.041875 27.93625 49.02125 25.9975 49 24 C41.08 24 33.16 24 25 24 Z " fill="#1D6EA7" transform="translate(139,243)"/>
<path d="M0 0 C7.59 0 15.18 0 23 0 C23 5.61 23 11.22 23 17 C15.41 17 7.82 17 0 17 C0 11.39 0 5.78 0 0 Z " fill="#035B9A" transform="translate(140,7)"/>
<path d="M0 0 C7.59 0 15.18 0 23 0 C23 5.61 23 11.22 23 17 C15.41 17 7.82 17 0 17 C0 11.39 0 5.78 0 0 Z " fill="#035B99" transform="translate(116,7)"/>
<path d="M0 0 C7.59 0 15.18 0 23 0 C23 5.61 23 11.22 23 17 C15.41 17 7.82 17 0 17 C0 11.39 0 5.78 0 0 Z " fill="#035B9A" transform="translate(92,7)"/>
<path d="M0 0 C7.59 0 15.18 0 23 0 C23 7.59 23 15.18 23 23 C21.35 23 19.7 23 18 23 C18 21.02 18 19.04 18 17 C15.69 17 13.38 17 11 17 C11 15.35 11 13.7 11 12 C7.04 12 3.08 12 -1 12 C-0.67 8.04 -0.34 4.08 0 0 Z " fill="#085E9B" transform="translate(92,98)"/>
<path d="M0 0 C1.65 0 3.3 0 5 0 C5 7.59 5 15.18 5 23 C-2.59 23 -10.18 23 -18 23 C-18 19.37 -18 15.74 -18 12 C-14.04 12 -10.08 12 -6 12 C-6 10.02 -6 8.04 -6 6 C-4.02 6 -2.04 6 0 6 C0 4.02 0 2.04 0 0 Z " fill="#055C9A" transform="translate(134,364)"/>
<path d="M0 0 C0.33 0 0.66 0 1 0 C1 33.66 1 67.32 1 102 C4.63 102 8.26 102 12 102 C12 100.35 12 98.7 12 97 C12.33 97 12.66 97 13 97 C13 98.98 13 100.96 13 103 C8.71 103 4.42 103 0 103 C0 91.12 0 79.24 0 67 C-7.59 67 -15.18 67 -23 67 C-23 74.59 -23 82.18 -23 90 C-23.33 90 -23.66 90 -24 90 C-24 82.41 -24 74.82 -24 67 C-31.92 67 -39.84 67 -48 67 C-48 74.59 -48 82.18 -48 90 C-48.33 90 -48.66 90 -49 90 C-49 82.41 -49 74.82 -49 67 C-56.59 67 -64.18 67 -72 67 C-72 74.59 -72 82.18 -72 90 C-72.33 90 -72.66 90 -73 90 C-73 82.41 -73 74.82 -73 67 C-80.59 67 -88.18 67 -96 67 C-96 66.67 -96 66.34 -96 66 C-88.41 66 -80.82 66 -73 66 C-73 58.41 -73 50.82 -73 43 C-72.67 43 -72.34 43 -72 43 C-72 50.59 -72 58.18 -72 66 C-48.24 66 -24.48 66 0 66 C0 44.22 0 22.44 0 0 Z " fill="#2573AA" transform="translate(212,7)"/>
<path d="M0 0 C7.92 0 15.84 0 24 0 C24 1.65 24 3.3 24 5 C22.02 5 20.04 5 18 5 C18 7.31 18 9.62 18 12 C16.02 12 14.04 12 12 12 C12 13.65 12 15.3 12 17 C8.04 17 4.08 17 0 17 C0 11.39 0 5.78 0 0 Z " fill="#065C9A" transform="translate(164,122)"/>
<path d="M0 0 C3.63 0 7.26 0 11 0 C11.33 8.91 11.66 17.82 12 27 C8.04 27 4.08 27 0 27 C0 18.09 0 9.18 0 0 Z " fill="#055B9A" transform="translate(358,364)"/>
<path d="M0 0 C0.33 0 0.66 0 1 0 C1 7.59 1 15.18 1 23 C8.59 23 16.18 23 24 23 C24 15.41 24 7.82 24 0 C24.33 0 24.66 0 25 0 C25 7.59 25 15.18 25 23 C32.92 23 40.84 23 49 23 C49 15.41 49 7.82 49 0 C49.33 0 49.66 0 50 0 C50 7.59 50 15.18 50 23 C53.63 23 57.26 23 61 23 C61 21.02 61 19.04 61 17 C64.96 17 68.92 17 73 17 C73 17.33 73 17.66 73 18 C69.37 18 65.74 18 62 18 C62 19.98 62 21.96 62 24 C60.02 24 58.04 24 56 24 C56 25.98 56 27.96 56 30 C51.71 30 47.42 30 43 30 C43 29.67 43 29.34 43 29 C44.98 29 46.96 29 49 29 C49 27.35 49 25.7 49 24 C41.08 24 33.16 24 25 24 C25 29.61 25 35.22 25 41 C28.96 41 32.92 41 37 41 C37 41.33 37 41.66 37 42 C33.04 42 29.08 42 25 42 C25 43.98 25 45.96 25 48 C18.73 48 12.46 48 6 48 C6 46.02 6 44.04 6 42 C4.02 42 2.04 42 0 42 C0 40.02 0 38.04 0 36 C-1.98 36 -3.96 36 -6 36 C-6 34.02 -6 32.04 -6 30 C-5.67 30 -5.34 30 -5 30 C-5 31.65 -5 33.3 -5 35 C-3.35 35 -1.7 35 0 35 C0 31.37 0 27.74 0 24 C-3.3 24 -6.6 24 -10 24 C-10 23.67 -10 23.34 -10 23 C-6.7 23 -3.4 23 0 23 C0 15.41 0 7.82 0 0 Z M1 24 C1 29.61 1 35.22 1 41 C2.98 41 4.96 41 7 41 C7 42.98 7 44.96 7 47 C12.61 47 18.22 47 24 47 C24 39.41 24 31.82 24 24 C16.41 24 8.82 24 1 24 Z " fill="#397DAB" transform="translate(139,98)"/>
<path d="M0 0 C7.59 0 15.18 0 23 0 C23.33 3.63 23.66 7.26 24 11 C18.06 11 12.12 11 6 11 C6 12.98 6 14.96 6 17 C4.02 17 2.04 17 0 17 C0 11.39 0 5.78 0 0 Z " fill="#055D9B" transform="translate(261,74)"/>
<path d="M0 0 C0.33 0 0.66 0 1 0 C1 1.65 1 3.3 1 5 C5.95 5 10.9 5 16 5 C15.01 5.33 14.02 5.66 13 6 C13 16.89 13 27.78 13 39 C28.51 39 44.02 39 60 39 C60 34.05 60 29.1 60 24 C60.33 24 60.66 24 61 24 C61 26.97 61 29.94 61 33 C64.96 33 68.92 33 73 33 C73 33.33 73 33.66 73 34 C69.04 34 65.08 34 61 34 C61 35.98 61 37.96 61 40 C44.83 40 28.66 40 12 40 C12 34.72 12 29.44 12 24 C10.02 24 8.04 24 6 24 C6 20.04 6 16.08 6 12 C4.02 12 2.04 12 0 12 C0 8.04 0 4.08 0 0 Z " fill="#538DB1" transform="translate(297,358)"/>
<path d="M0 0 C1.98 0 3.96 0 6 0 C6 3.96 6 7.92 6 12 C7.65 12 9.3 12 11 12 C11 17.94 11 23.88 11 30 C7.37 30 3.74 30 0 30 C0 20.1 0 10.2 0 0 Z " fill="#065B98" transform="translate(225,285)"/>
<path d="M0 0 C3.63 0 7.26 0 11 0 C11 7.92 11 15.84 11 24 C7.37 24 3.74 24 0 24 C0 16.08 0 8.16 0 0 Z " fill="#055C99" transform="translate(213,170)"/>
<path d="M0 0 C3.63 0 7.26 0 11 0 C11 7.59 11 15.18 11 23 C7.37 23 3.74 23 0 23 C0 15.41 0 7.82 0 0 Z " fill="#065B9A" transform="translate(49,364)"/>
<path d="M0 0 C3.63 0 7.26 0 11 0 C11 7.59 11 15.18 11 23 C7.37 23 3.74 23 0 23 C0 15.41 0 7.82 0 0 Z " fill="#055C9B" transform="translate(37,364)"/>
<path d="M0 0 C3.63 0 7.26 0 11 0 C11 7.59 11 15.18 11 23 C7.37 23 3.74 23 0 23 C0 15.41 0 7.82 0 0 Z " fill="#055B9A" transform="translate(25,364)"/>
<path d="M0 0 C3.63 0 7.26 0 11 0 C11 7.59 11 15.18 11 23 C7.37 23 3.74 23 0 23 C0 15.41 0 7.82 0 0 Z " fill="#045B9B" transform="translate(358,340)"/>
<path d="M0 0 C3.63 0 7.26 0 11 0 C11 7.59 11 15.18 11 23 C7.37 23 3.74 23 0 23 C0 15.41 0 7.82 0 0 Z " fill="#035A99" transform="translate(213,340)"/>
<path d="M0 0 C3.63 0 7.26 0 11 0 C11 7.59 11 15.18 11 23 C7.37 23 3.74 23 0 23 C0 15.41 0 7.82 0 0 Z " fill="#045C9A" transform="translate(49,340)"/>
<path d="M0 0 C3.63 0 7.26 0 11 0 C11 7.59 11 15.18 11 23 C7.37 23 3.74 23 0 23 C0 15.41 0 7.82 0 0 Z " fill="#045B9A" transform="translate(358,316)"/>
<path d="M0 0 C3.63 0 7.26 0 11 0 C11 7.59 11 15.18 11 23 C7.37 23 3.74 23 0 23 C0 15.41 0 7.82 0 0 Z " fill="#045B99" transform="translate(225,316)"/>
<path d="M0 0 C3.63 0 7.26 0 11 0 C11 7.59 11 15.18 11 23 C7.37 23 3.74 23 0 23 C0 15.41 0 7.82 0 0 Z " fill="#045B99" transform="translate(213,316)"/>
<path d="M0 0 C3.63 0 7.26 0 11 0 C11 7.59 11 15.18 11 23 C7.37 23 3.74 23 0 23 C0 15.41 0 7.82 0 0 Z " fill="#045B9A" transform="translate(49,316)"/>
<path d="M0 0 C3.63 0 7.26 0 11 0 C11 7.59 11 15.18 11 23 C7.37 23 3.74 23 0 23 C0 15.41 0 7.82 0 0 Z " fill="#045B9A" transform="translate(37,316)"/>
<path d="M0 0 C3.63 0 7.26 0 11 0 C11 7.59 11 15.18 11 23 C7.37 23 3.74 23 0 23 C0 15.41 0 7.82 0 0 Z " fill="#045B99" transform="translate(25,316)"/>
<path d="M0 0 C3.63 0 7.26 0 11 0 C11 7.59 11 15.18 11 23 C7.37 23 3.74 23 0 23 C0 15.41 0 7.82 0 0 Z " fill="#045C9A" transform="translate(25,292)"/>
<path d="M0 0 C3.63 0 7.26 0 11 0 C11 7.59 11 15.18 11 23 C7.37 23 3.74 23 0 23 C0 15.41 0 7.82 0 0 Z " fill="#055B98" transform="translate(25,267)"/>
<path d="M0 0 C3.63 0 7.26 0 11 0 C11 7.59 11 15.18 11 23 C7.37 23 3.74 23 0 23 C0 15.41 0 7.82 0 0 Z " fill="#045C9B" transform="translate(358,243)"/>
<path d="M0 0 C3.63 0 7.26 0 11 0 C11 7.59 11 15.18 11 23 C7.37 23 3.74 23 0 23 C0 15.41 0 7.82 0 0 Z " fill="#045D9B" transform="translate(237,243)"/>
<path d="M0 0 C3.63 0 7.26 0 11 0 C11 7.59 11 15.18 11 23 C7.37 23 3.74 23 0 23 C0 15.41 0 7.82 0 0 Z " fill="#055B9A" transform="translate(49,243)"/>
<path d="M0 0 C3.63 0 7.26 0 11 0 C11 7.59 11 15.18 11 23 C7.37 23 3.74 23 0 23 C0 15.41 0 7.82 0 0 Z " fill="#055C9B" transform="translate(358,219)"/>
<path d="M0 0 C3.63 0 7.26 0 11 0 C11 7.59 11 15.18 11 23 C7.37 23 3.74 23 0 23 C0 15.41 0 7.82 0 0 Z " fill="#045C9B" transform="translate(237,219)"/>
<path d="M0 0 C3.63 0 7.26 0 11 0 C11 7.59 11 15.18 11 23 C7.37 23 3.74 23 0 23 C0 15.41 0 7.82 0 0 Z " fill="#045C9A" transform="translate(225,219)"/>
<path d="M0 0 C3.63 0 7.26 0 11 0 C11 7.59 11 15.18 11 23 C7.37 23 3.74 23 0 23 C0 15.41 0 7.82 0 0 Z " fill="#045C9A" transform="translate(213,219)"/>
<path d="M0 0 C3.63 0 7.26 0 11 0 C11 7.59 11 15.18 11 23 C7.37 23 3.74 23 0 23 C0 15.41 0 7.82 0 0 Z " fill="#065C9B" transform="translate(49,219)"/>
<path d="M0 0 C3.63 0 7.26 0 11 0 C11 7.59 11 15.18 11 23 C7.37 23 3.74 23 0 23 C0 15.41 0 7.82 0 0 Z " fill="#055B99" transform="translate(37,219)"/>
<path d="M0 0 C3.63 0 7.26 0 11 0 C11 7.59 11 15.18 11 23 C7.37 23 3.74 23 0 23 C0 15.41 0 7.82 0 0 Z " fill="#055C9A" transform="translate(358,195)"/>
<path d="M0 0 C3.63 0 7.26 0 11 0 C11 7.59 11 15.18 11 23 C7.37 23 3.74 23 0 23 C0 15.41 0 7.82 0 0 Z " fill="#055B9A" transform="translate(237,195)"/>
<path d="M0 0 C3.63 0 7.26 0 11 0 C11 7.59 11 15.18 11 23 C7.37 23 3.74 23 0 23 C0 15.41 0 7.82 0 0 Z " fill="#045C9A" transform="translate(225,195)"/>
<path d="M0 0 C3.63 0 7.26 0 11 0 C11 7.59 11 15.18 11 23 C7.37 23 3.74 23 0 23 C0 15.41 0 7.82 0 0 Z " fill="#045C9A" transform="translate(213,195)"/>
<path d="M0 0 C3.63 0 7.26 0 11 0 C11 7.59 11 15.18 11 23 C7.37 23 3.74 23 0 23 C0 15.41 0 7.82 0 0 Z " fill="#065C9A" transform="translate(37,195)"/>
<path d="M0 0 C3.63 0 7.26 0 11 0 C11 7.59 11 15.18 11 23 C7.37 23 3.74 23 0 23 C0 15.41 0 7.82 0 0 Z " fill="#055B9A" transform="translate(249,171)"/>
<path d="M0 0 C3.63 0 7.26 0 11 0 C11 7.59 11 15.18 11 23 C7.37 23 3.74 23 0 23 C0 15.41 0 7.82 0 0 Z " fill="#065B99" transform="translate(49,171)"/>
<path d="M0 0 C3.63 0 7.26 0 11 0 C11 7.59 11 15.18 11 23 C7.37 23 3.74 23 0 23 C0 15.41 0 7.82 0 0 Z " fill="#065C99" transform="translate(25,171)"/>
<path d="M0 0 C3.63 0 7.26 0 11 0 C11 7.59 11 15.18 11 23 C7.37 23 3.74 23 0 23 C0 15.41 0 7.82 0 0 Z " fill="#065C9B" transform="translate(249,146)"/>
<path d="M0 0 C3.63 0 7.26 0 11 0 C11 7.59 11 15.18 11 23 C7.37 23 3.74 23 0 23 C0 15.41 0 7.82 0 0 Z " fill="#055B9A" transform="translate(213,146)"/>
<path d="M0 0 C3.63 0 7.26 0 11 0 C11 7.59 11 15.18 11 23 C7.37 23 3.74 23 0 23 C0 15.41 0 7.82 0 0 Z " fill="#055C9B" transform="translate(225,146)"/>
<path d="M0 0 C3.63 0 7.26 0 11 0 C11 7.59 11 15.18 11 23 C7.37 23 3.74 23 0 23 C0 15.41 0 7.82 0 0 Z " fill="#065C99" transform="translate(49,146)"/>
<path d="M0 0 C3.63 0 7.26 0 11 0 C11 7.59 11 15.18 11 23 C7.37 23 3.74 23 0 23 C0 15.41 0 7.82 0 0 Z " fill="#055C9A" transform="translate(25,146)"/>
<path d="M0 0 C3.63 0 7.26 0 11 0 C11 7.59 11 15.18 11 23 C7.37 23 3.74 23 0 23 C0 15.41 0 7.82 0 0 Z " fill="#055C9A" transform="translate(49,122)"/>
<path d="M0 0 C3.63 0 7.26 0 11 0 C11 7.59 11 15.18 11 23 C7.37 23 3.74 23 0 23 C0 15.41 0 7.82 0 0 Z " fill="#055C9B" transform="translate(37,122)"/>
<path d="M0 0 C3.63 0 7.26 0 11 0 C11 7.59 11 15.18 11 23 C7.37 23 3.74 23 0 23 C0 15.41 0 7.82 0 0 Z " fill="#045C9A" transform="translate(358,122)"/>
<path d="M0 0 C3.63 0 7.26 0 11 0 C11 7.59 11 15.18 11 23 C7.37 23 3.74 23 0 23 C0 15.41 0 7.82 0 0 Z " fill="#055B9A" transform="translate(358,98)"/>
<path d="M0 0 C3.63 0 7.26 0 11 0 C11 7.59 11 15.18 11 23 C7.37 23 3.74 23 0 23 C0 15.41 0 7.82 0 0 Z " fill="#055C9B" transform="translate(358,74)"/>
<path d="M0 0 C3.63 0 7.26 0 11 0 C11 7.59 11 15.18 11 23 C7.37 23 3.74 23 0 23 C0 15.41 0 7.82 0 0 Z " fill="#055D9B" transform="translate(237,74)"/>
<path d="M0 0 C3.63 0 7.26 0 11 0 C11 7.59 11 15.18 11 23 C7.37 23 3.74 23 0 23 C0 15.41 0 7.82 0 0 Z " fill="#045C9B" transform="translate(358,25)"/>
<path d="M0 0 C3.63 0 7.26 0 11 0 C11 7.59 11 15.18 11 23 C7.37 23 3.74 23 0 23 C0 15.41 0 7.82 0 0 Z " fill="#045B9A" transform="translate(298,25)"/>
<path d="M0 0 C1.65 0 3.3 0 5 0 C5 5.61 5 11.22 5 17 C-2.59 17 -10.18 17 -18 17 C-18 15.35 -18 13.7 -18 12 C-16.02 12 -14.04 12 -12 12 C-12 10.02 -12 8.04 -12 6 C-8.04 6 -4.08 6 0 6 C0 4.02 0 2.04 0 0 Z " fill="#065B99" transform="translate(158,346)"/>
<path d="M0 0 C5.61 0 11.22 0 17 0 C17 1.98 17 3.96 17 6 C20.96 6 24.92 6 29 6 C29 7.65 29 9.3 29 11 C19.43 11 9.86 11 0 11 C0 7.37 0 3.74 0 0 Z " fill="#065C9A" transform="translate(92,134)"/>
<path d="M0 0 C1.98 0 3.96 0 6 0 C6 1.98 6 3.96 6 6 C7.65 6 9.3 6 11 6 C11 11.94 11 17.88 11 24 C7.37 24 3.74 24 0 24 C0 16.08 0 8.16 0 0 Z " fill="#085D99" transform="translate(49,291)"/>
<path d="M0 0 C3.63 0 7.26 0 11 0 C11 7.59 11 15.18 11 23 C9.35 23 7.7 23 6 23 C6 21.35 6 19.7 6 18 C4.02 18 2.04 18 0 18 C0 12.06 0 6.12 0 0 Z " fill="#055C9B" transform="translate(225,243)"/>
<path d="M0 0 C0.33 0 0.66 0 1 0 C1 7.59 1 15.18 1 23 C8.59 23 16.18 23 24 23 C24 23.66 24 24.32 24 25 C16.41 25 8.82 25 1 25 C1 32.59 1 40.18 1 48 C7.93 48 14.86 48 22 48 C22 48.33 22 48.66 22 49 C15.07 49 8.14 49 1 49 C1 50.65 1 52.3 1 54 C-1.31 54 -3.62 54 -6 54 C-6 52.02 -6 50.04 -6 48 C-4.02 48 -2.04 48 0 48 C0 40.41 0 32.82 0 25 C-7.59 25 -15.18 25 -23 25 C-23 26.32 -23 27.64 -23 29 C-21.68 29.33 -20.36 29.66 -19 30 C-20.65 30 -22.3 30 -24 30 C-24 27.69 -24 25.38 -24 23 C-16.08 23 -8.16 23 0 23 C0 15.41 0 7.82 0 0 Z " fill="#1869A3" transform="translate(91,267)"/>
<path d="M0 0 C5.61 0 11.22 0 17 0 C17 1.65 17 3.3 17 5 C15.35 5 13.7 5 12 5 C12 8.63 12 12.26 12 16 C11.01 15.34 10.02 14.68 9 14 C9 13.01 9 12.02 9 11 C8.34 11 7.68 11 7 11 C6.9175 11.763125 6.835 12.52625 6.75 13.3125 C5.84730645 16.54715191 4.86406539 17.35099265 2 19 C1.34 19 0.68 19 0 19 C0 12.73 0 6.46 0 0 Z " fill="#065D9B" transform="translate(370,364)"/>
<path d="M0 0 C7.59 0 15.18 0 23 0 C23 2.97 23 5.94 23 9 C15.41 9 7.82 9 0 9 C0 6.03 0 3.06 0 0 Z " fill="#055B9A" transform="translate(334,388)"/>
<path d="M0 0 C7.59 0 15.18 0 23 0 C23 2.97 23 5.94 23 9 C15.41 9 7.82 9 0 9 C0 6.03 0 3.06 0 0 Z " fill="#055A99" transform="translate(310,388)"/>
<path d="M0 0 C7.59 0 15.18 0 23 0 C23 2.97 23 5.94 23 9 C15.41 9 7.82 9 0 9 C0 6.03 0 3.06 0 0 Z " fill="#055A99" transform="translate(140,388)"/>
<path d="M0 0 C7.59 0 15.18 0 23 0 C23 2.97 23 5.94 23 9 C15.41 9 7.82 9 0 9 C0 6.03 0 3.06 0 0 Z " fill="#055A99" transform="translate(116,388)"/>
<path d="M0 0 C0.33 0 0.66 0 1 0 C1 15.84 1 31.68 1 48 C4.63 48 8.26 48 12 48 C12 34.14 12 20.28 12 6 C12.33 6 12.66 6 13 6 C13 20.19 13 34.38 13 49 C9.04 49 5.08 49 1 49 C1 50.65 1 52.3 1 54 C0.67 54 0.34 54 0 54 C0 52.35 0 50.7 0 49 C-7.92 49 -15.84 49 -24 49 C-24 50.65 -24 52.3 -24 54 C-25.98 54 -27.96 54 -30 54 C-30 52.02 -30 50.04 -30 48 C-28.02 48 -26.04 48 -24 48 C-24 46.02 -24 44.04 -24 42 C-22.02 42 -20.04 42 -18 42 C-18 43.98 -18 45.96 -18 48 C-12.06 48 -6.12 48 0 48 C0 32.16 0 16.32 0 0 Z " fill="#2B77AB" transform="translate(212,267)"/>
<path d="M0 0 C5.61 0 11.22 0 17 0 C17 5.61 17 11.22 17 17 C15.02 17 13.04 17 11 17 C11 15.35 11 13.7 11 12 C9.02 12 7.04 12 5 12 C5 9.69 5 7.38 5 5 C3.35 5 1.7 5 0 5 C0 3.35 0 1.7 0 0 Z " fill="#0B5F9A" transform="translate(195,219)"/>
<path d="M0 0 C1.98 0 3.96 0 6 0 C6 5.61 6 11.22 6 17 C0.06 17 -5.88 17 -12 17 C-12 15.35 -12 13.7 -12 12 C-10.02 12 -8.04 12 -6 12 C-6 10.02 -6 8.04 -6 6 C-4.02 6 -2.04 6 0 6 C0 4.02 0 2.04 0 0 Z " fill="#065B98" transform="translate(182,322)"/>
<path d="M0 0 C2.31 0 4.62 0 7 0 C7 13.86 7 27.72 7 42 C14.59 42 22.18 42 30 42 C30 42.33 30 42.66 30 43 C26.04 43 22.08 43 18 43 C18 44.98 18 46.96 18 49 C14.04 49 10.08 49 6 49 C6 47.02 6 45.04 6 43 C4.35 43 2.7 43 1 43 C1 42.67 1 42.34 1 42 C2.65 42 4.3 42 6 42 C6 34.41 6 26.82 6 19 C5.01 18.67 4.02 18.34 3 18 C3.99 18 4.98 18 6 18 C6 14.37 6 10.74 6 7 C4.02 7 2.04 7 0 7 C0 4.69 0 2.38 0 0 Z " fill="#2C75A8" transform="translate(85,321)"/>
<path d="M0 0 C0.33 0 0.66 0 1 0 C1 7.59 1 15.18 1 23 C8.59 23 16.18 23 24 23 C24 15.41 24 7.82 24 0 C24.33 0 24.66 0 25 0 C25 7.59 25 15.18 25 23 C32.59 23 40.18 23 48 23 C48 23.66 48 24.32 48 25 C40.41 25 32.82 25 25 25 C25 32.59 25 40.18 25 48 C24.67 48 24.34 48 24 48 C24 40.41 24 32.82 24 25 C16.41 25 8.82 25 1 25 C1 32.59 1 40.18 1 48 C0.67 48 0.34 48 0 48 C0 32.16 0 16.32 0 0 Z " fill="#1768A2" transform="translate(309,267)"/>
<path d="M0 0 C3.63 0 7.26 0 11 0 C11 5.61 11 11.22 11 17 C7.37 17 3.74 17 0 17 C0 11.39 0 5.78 0 0 Z " fill="#055B9A" transform="translate(25,128)"/>
<path d="M0 0 C3.63 0 7.26 0 11 0 C11 5.61 11 11.22 11 17 C7.37 17 3.74 17 0 17 C0 11.39 0 5.78 0 0 Z " fill="#045D9B" transform="translate(249,74)"/>
<path d="M0 0 C3.63 0 7.26 0 11 0 C11 5.61 11 11.22 11 17 C7.37 17 3.74 17 0 17 C0 11.39 0 5.78 0 0 Z " fill="#035B99" transform="translate(249,7)"/>
<path d="M0 0 C3.63 0 7.26 0 11 0 C11 5.61 11 11.22 11 17 C7.37 17 3.74 17 0 17 C0 11.39 0 5.78 0 0 Z " fill="#035B9A" transform="translate(358,7)"/>
<path d="M0 0 C3.63 0 7.26 0 11 0 C11 5.61 11 11.22 11 17 C7.37 17 3.74 17 0 17 C0 11.39 0 5.78 0 0 Z " fill="#045B99" transform="translate(298,7)"/>
<path d="M0 0 C3.63 0 7.26 0 11 0 C11 5.61 11 11.22 11 17 C7.37 17 3.74 17 0 17 C0 11.39 0 5.78 0 0 Z " fill="#045B9A" transform="translate(237,7)"/>
<path d="M0 0 C3.63 0 7.26 0 11 0 C11 5.61 11 11.22 11 17 C7.37 17 3.74 17 0 17 C0 11.39 0 5.78 0 0 Z " fill="#035B9A" transform="translate(225,7)"/>
<path d="M0 0 C3.63 0 7.26 0 11 0 C11 5.61 11 11.22 11 17 C7.37 17 3.74 17 0 17 C0 11.39 0 5.78 0 0 Z " fill="#035B9A" transform="translate(213,7)"/>
<path d="M0 0 C3.63 0 7.26 0 11 0 C11 5.61 11 11.22 11 17 C7.37 17 3.74 17 0 17 C0 11.39 0 5.78 0 0 Z " fill="#035B99" transform="translate(49,7)"/>
<path d="M0 0 C3.63 0 7.26 0 11 0 C11 5.61 11 11.22 11 17 C7.37 17 3.74 17 0 17 C0 11.39 0 5.78 0 0 Z " fill="#045C9A" transform="translate(37,7)"/>
<path d="M0 0 C3.63 0 7.26 0 11 0 C11 3.63 11 7.26 11 11 C9.35 11.33 7.7 11.66 6 12 C5.67 15.63 5.34 19.26 5 23 C3.35 23 1.7 23 0 23 C0 15.41 0 7.82 0 0 Z " fill="#055D9B" transform="translate(249,243)"/>
<path d="M0 0 C1.65 0 3.3 0 5 0 C5 3.96 5 7.92 5 12 C6.98 12 8.96 12 11 12 C11 15.63 11 19.26 11 23 C7.37 23 3.74 23 0 23 C0 15.41 0 7.82 0 0 Z " fill="#045B99" transform="translate(237,316)"/>
<path d="M0 0 C0.66 0 1.32 0 2 0 C2 5.28 2 10.56 2 16 C9.59 16 17.18 16 25 16 C25 16.66 25 17.32 25 18 C17.41 18 9.82 18 2 18 C2 25.59 2 33.18 2 41 C1.34 41 0.68 41 0 41 C0 33.41 0 25.82 0 18 C-7.59 18 -15.18 18 -23 18 C-23 17.34 -23 16.68 -23 16 C-15.41 16 -7.82 16 0 16 C0 10.72 0 5.44 0 0 Z " fill="#12649F" transform="translate(187,153)"/>
<path d="M0 0 C0.33 0 0.66 0 1 0 C1 7.59 1 15.18 1 23 C7.6 23 14.2 23 21 23 C21 23.33 21 23.66 21 24 C14.4 24 7.8 24 1 24 C1 31.59 1 39.18 1 47 C6.94 47 12.88 47 19 47 C19 49.31 19 51.62 19 54 C17.02 54 15.04 54 13 54 C13 53.67 13 53.34 13 53 C14.65 53 16.3 53 18 53 C18 51.35 18 49.7 18 48 C12.39 48 6.78 48 1 48 C1 54.27 1 60.54 1 67 C6.20387508 63.99692963 6.20387508 63.99692963 8 59 C8.66 59 9.32 59 10 59 C13 63.38461538 13 63.38461538 13 66 C11.02 66 9.04 66 7 66 C7 67.32 7 68.64 7 70 C5.00045254 70.04254356 2.99958364 70.04080783 1 70 C0 69 0 69 -0.12025452 66.26023865 C-0.11803391 65.03668167 -0.11581329 63.81312469 -0.11352539 62.55249023 C-0.11367142 61.87934784 -0.11381744 61.20620544 -0.1139679 60.51266479 C-0.11326878 58.27794216 -0.10547652 56.0433019 -0.09765625 53.80859375 C-0.09579206 52.26302638 -0.09436816 50.71745843 -0.09336853 49.17189026 C-0.0895434 45.09642923 -0.07971317 41.02100363 -0.06866455 36.94555664 C-0.05845032 32.78988118 -0.05387089 28.63420001 -0.04882812 24.47851562 C-0.03809089 16.31899413 -0.02101454 8.15950147 0 0 Z " fill="#216FA7" transform="translate(369,316)"/>
<path d="M0 0 C0.33 0 0.66 0 1 0 C1 2.31 1 4.62 1 7 C6.28 7 11.56 7 17 7 C17 7.33 17 7.66 17 8 C11.72 8 6.44 8 1 8 C1 21.86 1 35.72 1 50 C-0.98 50 -2.96 50 -5 50 C-5 55.94 -5 61.88 -5 68 C-5.33 68 -5.66 68 -6 68 C-6 61.73 -6 55.46 -6 49 C-4.02 49 -2.04 49 0 49 C0 39.43 0 29.86 0 20 C-1.98 20 -3.96 20 -6 20 C-6 15.71 -6 11.42 -6 7 C-4.02 7 -2.04 7 0 7 C0 4.69 0 2.38 0 0 Z " fill="#5088AD" transform="translate(333,90)"/>
<path d="M0 0 C0.33 0 0.66 0 1 0 C1 7.59 1 15.18 1 23 C8.59 23 16.18 23 24 23 C24 23.66 24 24.32 24 25 C16.41 25 8.82 25 1 25 C1 30.61 1 36.22 1 42 C0.34 42 -0.32 42 -1 42 C-1 36.39 -1 30.78 -1 25 C-8.59 25 -16.18 25 -24 25 C-24 24.34 -24 23.68 -24 23 C-16.41 23 -8.82 23 -1 23 C-1 19.7 -1 16.4 -1 13 C-0.86389668 10.62305266 -0.70189489 8.247265 -0.5 5.875 C-0.36078125 4.20050781 -0.36078125 4.20050781 -0.21875 2.4921875 C-0.1465625 1.66976563 -0.074375 0.84734375 0 0 Z " fill="#13659F" transform="translate(188,267)"/>
<path d="M0 0 C3.96 0 7.92 0 12 0 C12 2.97 12 5.94 12 9 C4.08 9 -3.84 9 -12 9 C-12 8.01 -12 7.02 -12 6 C-10.02 6 -8.04 6 -6 6 C-6 5.01 -6 4.02 -6 3 C-4.02 3 -2.04 3 0 3 C0 2.01 0 1.02 0 0 Z " fill="#0A5D98" transform="translate(103,388)"/>
<path d="M0 0 C3.63 0 7.26 0 11 0 C11 3.63 11 7.26 11 11 C5.39 11 -0.22 11 -6 11 C-6 9.02 -6 7.04 -6 5 C-4.02 5 -2.04 5 0 5 C0 3.35 0 1.7 0 0 Z " fill="#065B99" transform="translate(128,183)"/>
<path d="M0 0 C1.65 0 3.3 0 5 0 C5 7.92 5 15.84 5 24 C3.35 24 1.7 24 0 24 C0 20.04 0 16.08 0 12 C-1.98 12 -3.96 12 -6 12 C-6 10.02 -6 8.04 -6 6 C-4.02 6 -2.04 6 0 6 C0 4.02 0 2.04 0 0 Z " fill="#085A96" transform="translate(255,279)"/>
<path d="M0 0 C1.98 0 3.96 0 6 0 C6.33 3.63 6.66 7.26 7 11 C14.59 11 22.18 11 30 11 C30 11.33 30 11.66 30 12 C26.10460543 12.19747891 22.20867984 12.38123029 18.3125 12.5625 C17.20970703 12.61857422 16.10691406 12.67464844 14.97070312 12.73242188 C13.90400391 12.78076172 12.83730469 12.82910156 11.73828125 12.87890625 C10.75899658 12.9260376 9.77971191 12.97316895 8.77075195 13.02172852 C6.04207295 13.00032994 3.64920937 12.62794508 1 12 C1 11.67 1 11.34 1 11 C2.65 11 4.3 11 6 11 C6 9.35 6 7.7 6 6 C4.02 6 2.04 6 0 6 C0 7.98 0 9.96 0 12 C-1.98 12 -3.96 12 -6 12 C-6 13.98 -6 15.96 -6 18 C-7.98 18 -9.96 18 -12 18 C-12 15.69 -12 13.38 -12 11 C-10.02 11 -8.04 11 -6 11 C-6 9.02 -6 7.04 -6 5 C-4.02 5 -2.04 5 0 5 C0 3.35 0 1.7 0 0 Z " fill="#94B6C8" transform="translate(85,207)"/>
<path d="M0 0 C7.92 0 15.84 0 24 0 C24 3.63 24 7.26 24 11 C22.02 11 20.04 11 18 11 C18 9.02 18 7.04 18 5 C12.06 5 6.12 5 0 5 C0 3.35 0 1.7 0 0 Z " fill="#075D99" transform="translate(285,74)"/>
<path d="M0 0 C3.63 0 7.26 0 11 0 C11 5.61 11 11.22 11 17 C9.35 17 7.7 17 6 17 C6 15.02 6 13.04 6 11 C4.02 11 2.04 11 0 11 C0 7.37 0 3.74 0 0 Z " fill="#055B9A" transform="translate(49,74)"/>
<path d="M0 0 C0.66 0 1.32 0 2 0 C2 7.59 2 15.18 2 23 C9.59 23 17.18 23 25 23 C25 23.33 25 23.66 25 24 C17.41 24 9.82 24 2 24 C2 31.92 2 39.84 2 48 C1.34 48 0.68 48 0 48 C0 40.08 0 32.16 0 24 C-7.59 24 -15.18 24 -23 24 C-23 23.67 -23 23.34 -23 23 C-15.41 23 -7.82 23 0 23 C0 15.41 0 7.82 0 0 Z " fill="#1266A1" transform="translate(187,25)"/>
<path d="M0 0 C3.63 0 7.26 0 11 0 C11 3.96 11 7.92 11 12 C7.37 12 3.74 12 0 12 C0 8.04 0 4.08 0 0 Z " fill="#055B98" transform="translate(237,267)"/>
<path d="M0 0 C0.33 0 0.66 0 1 0 C1 3.96 1 7.92 1 12 C2.98 12 4.96 12 7 12 C7 17.94 7 23.88 7 30 C8.98 30 10.96 30 13 30 C13 35.94 13 41.88 13 48 C14.98 48 16.96 48 19 48 C19 48.33 19 48.66 19 49 C17.02 49 15.04 49 13 49 C13 50.65 13 52.3 13 54 C12.67 54 12.34 54 12 54 C12 46.41 12 38.82 12 31 C10.02 31 8.04 31 6 31 C6 27.04 6 23.08 6 19 C4.35 19 2.7 19 1 19 C1 21.64 1 24.28 1 27 C0.67 27 0.34 27 0 27 C0 24.36 0 21.72 0 19 C-3.63 19 -7.26 19 -11 19 C-11 18.67 -11 18.34 -11 18 C-7.37 18 -3.74 18 0 18 C0 12.06 0 6.12 0 0 Z " fill="#4581AA" transform="translate(236,297)"/>
<path d="M0 0 C3.63 0 7.26 0 11 0 C11 1.65 11 3.3 11 5 C9.35 5 7.7 5 6 5 C6 8.96 6 12.92 6 17 C4.02 17 2.04 17 0 17 C0 11.39 0 5.78 0 0 Z " fill="#055C9A" transform="translate(261,219)"/>
<path d="M0 0 C3.63 0 7.26 0 11 0 C11 5.61 11 11.22 11 17 C9.02 17 7.04 17 5 17 C5 13.04 5 9.08 5 5 C3.35 5 1.7 5 0 5 C0 3.35 0 1.7 0 0 Z " fill="#0A5E99" transform="translate(13,195)"/>
<path d="M0 0 C5.94 0 11.88 0 18 0 C18 1.65 18 3.3 18 5 C14.04 5 10.08 5 6 5 C6 6.98 6 8.96 6 11 C4.02 11 2.04 11 0 11 C0 7.37 0 3.74 0 0 Z " fill="#065B98" transform="translate(164,316)"/>
<path d="M0 0 C3.63 0 7.26 0 11 0 C11 3.63 11 7.26 11 11 C7.37 11 3.74 11 0 11 C0 7.37 0 3.74 0 0 Z " fill="#065C9A" transform="translate(213,98)"/>
<path d="M0 0 C3.63 0 7.26 0 11 0 C11 3.63 11 7.26 11 11 C7.37 11 3.74 11 0 11 C0 7.37 0 3.74 0 0 Z " fill="#045B99" transform="translate(25,13)"/>
<path d="M0 0 C3.63 0 7.26 0 11 0 C11 5.61 11 11.22 11 17 C9.35 17 7.7 17 6 17 C5.67 13.37 5.34 9.74 5 6 C3.35 5.67 1.7 5.34 0 5 C0 3.35 0 1.7 0 0 Z " fill="#055B9A" transform="translate(298,364)"/>
<path d="M0 0 C0.33 0 0.66 0 1 0 C1 7.59 1 15.18 1 23 C8.59 23 16.18 23 24 23 C24 23.33 24 23.66 24 24 C16.41 24 8.82 24 1 24 C1 31.59 1 39.18 1 47 C0.34 47 -0.32 47 -1 47 C-1 39.41 -1 31.82 -1 24 C-8.26 24 -15.52 24 -23 24 C-23 23.67 -23 23.34 -23 23 C-15.41 23 -7.82 23 0 23 C0 15.41 0 7.82 0 0 Z " fill="#1768A4" transform="translate(188,340)"/>
<path d="M0 0 C3.63 0 7.26 0 11 0 C11 5.61 11 11.22 11 17 C9.35 17 7.7 17 6 17 C5.67 13.37 5.34 9.74 5 6 C3.35 5.67 1.7 5.34 0 5 C0 3.35 0 1.7 0 0 Z " fill="#065D9D" transform="translate(37,243)"/>
<path d="M0 0 C1.65 0 3.3 0 5 0 C5 5.61 5 11.22 5 17 C1.37 17 -2.26 17 -6 17 C-6 15.35 -6 13.7 -6 12 C-4.35 11.67 -2.7 11.34 -1 11 C-0.67 7.37 -0.34 3.74 0 0 Z " fill="#055C9A" transform="translate(304,201)"/>
<path d="M0 0 C5.61 0 11.22 0 17 0 C17 3.63 17 7.26 17 11 C15.35 11 13.7 11 12 11 C11.67 9.35 11.34 7.7 11 6 C7.37 5.67 3.74 5.34 0 5 C0 3.35 0 1.7 0 0 Z " fill="#055D9C" transform="translate(122,122)"/>
<path d="M0 0 C1.65 0 3.3 0 5 0 C5 7.59 5 15.18 5 23 C3.35 23 1.7 23 0 23 C0 15.41 0 7.82 0 0 Z " fill="#075C9A" transform="translate(249,364)"/>
<path d="M0 0 C1.65 0 3.3 0 5 0 C5 3.96 5 7.92 5 12 C6.98 12 8.96 12 11 12 C11 13.65 11 15.3 11 17 C7.37 17 3.74 17 0 17 C0 11.39 0 5.78 0 0 Z " fill="#055B98" transform="translate(1,225)"/>
<path d="M0 0 C3.63 0 7.26 0 11 0 C11 5.61 11 11.22 11 17 C9.35 17 7.7 17 6 17 C6 13.04 6 9.08 6 5 C4.02 5 2.04 5 0 5 C0 3.35 0 1.7 0 0 Z " fill="#055C9B" transform="translate(25,219)"/>
<path d="M0 0 C3.63 0 7.26 0 11 0 C11 2.97 11 5.94 11 9 C7.37 9 3.74 9 0 9 C0 6.03 0 3.06 0 0 Z " fill="#065C9B" transform="translate(237,388)"/>
<path d="M0 0 C3.63 0 7.26 0 11 0 C11 2.97 11 5.94 11 9 C7.37 9 3.74 9 0 9 C0 6.03 0 3.06 0 0 Z " fill="#055B9A" transform="translate(225,388)"/>
<path d="M0 0 C3.63 0 7.26 0 11 0 C11 2.97 11 5.94 11 9 C7.37 9 3.74 9 0 9 C0 6.03 0 3.06 0 0 Z " fill="#065C9B" transform="translate(213,388)"/>
<path d="M0 0 C1.98 0 3.96 0 6 0 C6 2.31 6 4.62 6 7 C-1.92 7 -9.84 7 -18 7 C-18 11.95 -18 16.9 -18 22 C-18.33 22 -18.66 22 -19 22 C-19 17.05 -19 12.1 -19 7 C-26.59 7 -34.18 7 -42 7 C-42 6.67 -42 6.34 -42 6 C-28.14 6 -14.28 6 0 6 C0 4.02 0 2.04 0 0 Z " fill="#2471A8" transform="translate(182,212)"/>
<path d="M0 0 C3.63 0 7.26 0 11 0 C11 3.96 11 7.92 11 12 C9.35 12 7.7 12 6 12 C6 10.02 6 8.04 6 6 C4.02 6 2.04 6 0 6 C0 4.02 0 2.04 0 0 Z " fill="#075C99" transform="translate(49,267)"/>
<path d="M0 0 C1.65 0 3.3 0 5 0 C5 1.65 5 3.3 5 5 C6.98 5 8.96 5 11 5 C11 6.98 11 8.96 11 11 C7.37 11 3.74 11 0 11 C0 7.37 0 3.74 0 0 Z " fill="#055A97" transform="translate(61,304)"/>
<path d="M0 0 C1.98 0 3.96 0 6 0 C6 3.63 6 7.26 6 11 C2.37 11 -1.26 11 -5 11 C-5 9.35 -5 7.7 -5 6 C-3.35 6 -1.7 6 0 6 C0 4.02 0 2.04 0 0 Z " fill="#0A5C99" transform="translate(18,134)"/>
<path d="M0 0 C0.33 0 0.66 0 1 0 C1 7.59 1 15.18 1 23 C2.65 23 4.3 23 6 23 C6 19.37 6 15.74 6 12 C6.33 12 6.66 12 7 12 C7 15.96 7 19.92 7 24 C5.02 24 3.04 24 1 24 C1 27.96 1 31.92 1 36 C0.67 36 0.34 36 0 36 C0 32.04 0 28.08 0 24 C-3.63 24 -7.26 24 -11 24 C-11 27.96 -11 31.92 -11 36 C-11.33 36 -11.66 36 -12 36 C-12 32.04 -12 28.08 -12 24 C-13.98 24 -15.96 24 -18 24 C-18 22.02 -18 20.04 -18 18 C-17.67 18 -17.34 18 -17 18 C-17 19.65 -17 21.3 -17 23 C-11.39 23 -5.78 23 0 23 C0 15.41 0 7.82 0 0 Z " fill="#3F80A9" transform="translate(248,243)"/>
<path d="M0 0 C3.63 0 7.26 0 11 0 C11 3.63 11 7.26 11 11 C9.35 11 7.7 11 6 11 C5.67 9.35 5.34 7.7 5 6 C3.35 5.67 1.7 5.34 0 5 C0 3.35 0 1.7 0 0 Z " fill="#045C9A" transform="translate(213,243)"/>
<path d="M0 0 C1.65 0 3.3 0 5 0 C5 5.61 5 11.22 5 17 C3.35 17 1.7 17 0 17 C0 11.39 0 5.78 0 0 Z " fill="#055B99" transform="translate(249,346)"/>
<path d="M0 0 C3.63 0 7.26 0 11 0 C11 3.63 11 7.26 11 11 C9.35 11 7.7 11 6 11 C6 9.02 6 7.04 6 5 C4.02 5 2.04 5 0 5 C0 3.35 0 1.7 0 0 Z " fill="#055C9A" transform="translate(37,74)"/>
<path d="M0 0 C0.33 0 0.66 0 1 0 C1 7.59 1 15.18 1 23 C2.65 23 4.3 23 6 23 C6 24.98 6 26.96 6 29 C4.02 29 2.04 29 0 29 C0 27.35 0 25.7 0 24 C-7.59 24 -15.18 24 -23 24 C-23 23.67 -23 23.34 -23 23 C-15.41 23 -7.82 23 0 23 C0 15.41 0 7.82 0 0 Z " fill="#1F6DA7" transform="translate(139,316)"/>
<path d="M0 0 C1.98 0 3.96 0 6 0 C6.33 3.63 6.66 7.26 7 11 C14.59 11 22.18 11 30 11 C30 11.33 30 11.66 30 12 C26.10460543 12.19747891 22.20867984 12.38123029 18.3125 12.5625 C17.20970703 12.61857422 16.10691406 12.67464844 14.97070312 12.73242188 C13.90400391 12.78076172 12.83730469 12.82910156 11.73828125 12.87890625 C10.75899658 12.9260376 9.77971191 12.97316895 8.77075195 13.02172852 C6.04207295 13.00032994 3.64920937 12.62794508 1 12 C1 11.67 1 11.34 1 11 C2.65 11 4.3 11 6 11 C6 9.35 6 7.7 6 6 C4.02 6 2.04 6 0 6 C0 4.02 0 2.04 0 0 Z " fill="#2773A9" transform="translate(85,207)"/>
<path d="M0 0 C0.33 0 0.66 0 1 0 C1 7.59 1 15.18 1 23 C4.63 23 8.26 23 12 23 C12 23.66 12 24.32 12 25 C4.41 25 -3.18 25 -11 25 C-11 24.34 -11 23.68 -11 23 C-7.37 23 -3.74 23 0 23 C0 15.41 0 7.82 0 0 Z " fill="#1466A1" transform="translate(248,25)"/>
<path d="M0 0 C3.63 0 7.26 0 11 0 C11 1.98 11 3.96 11 6 C7.37 6 3.74 6 0 6 C0 4.02 0 2.04 0 0 Z " fill="#075B95" transform="translate(116,170)"/>
<path d="M0 0 C0.33 0 0.66 0 1 0 C1 5.61 1 11.22 1 17 C0.67 17 0.34 17 0 17 C0 15.35 0 13.7 0 12 C-3.96 12 -7.92 12 -12 12 C-12 11.67 -12 11.34 -12 11 C-10.02 11 -8.04 11 -6 11 C-6 9.02 -6 7.04 -6 5 C-4.02 5 -2.04 5 0 5 C0 3.35 0 1.7 0 0 Z " fill="#4F8BB2" transform="translate(24,13)"/>
<path d="M0 0 C9.9 0 19.8 0 30 0 C30 1.98 30 3.96 30 6 C28.02 6 26.04 6 24 6 C24 4.35 24 2.7 24 1 C16.08 1 8.16 1 0 1 C0 0.67 0 0.34 0 0 Z " fill="#1F6DA4" transform="translate(67,194)"/>
<path d="M0 0 C3.96 0 7.92 0 12 0 C12 1.65 12 3.3 12 5 C8.04 5 4.08 5 0 5 C0 3.35 0 1.7 0 0 Z " fill="#085D9C" transform="translate(79,98)"/>
<path d="M0 0 C0.33 0 0.66 0 1 0 C1 3.63 1 7.26 1 11 C2.65 11 4.3 11 6 11 C7 12 7 12 7.0625 15.0625 C7.041875 16.031875 7.02125 17.00125 7 18 C4.69 18 2.38 18 0 18 C0 12.06 0 6.12 0 0 Z " fill="#70A2C1" transform="translate(24,249)"/>
<path d="M0 0 C0.66 0 1.32 0 2 0 C5 4.38461538 5 4.38461538 5 7 C3.02 7 1.04 7 -1 7 C-1 8.32 -1 9.64 -1 11 C-2.98 11 -4.96 11 -7 11 C-7.33 10.01 -7.66 9.02 -8 8 C-6.576875 7.4121875 -6.576875 7.4121875 -5.125 6.8125 C-1.65872662 4.80206144 -1.0197307 3.77300358 0 0 Z " fill="#80ACCA" transform="translate(377,375)"/>
<path d="M0 0 C3.63 0 7.26 0 11 0 C11 1.65 11 3.3 11 5 C7.37 5 3.74 5 0 5 C0 3.35 0 1.7 0 0 Z " fill="#075C9B" transform="translate(92,364)"/>
<path d="M0 0 C3.63 0 7.26 0 11 0 C11 1.65 11 3.3 11 5 C7.37 5 3.74 5 0 5 C0 3.35 0 1.7 0 0 Z " fill="#065B99" transform="translate(237,140)"/>
<path d="M0 0 C3.63 0 7.26 0 11 0 C11 1.65 11 3.3 11 5 C7.37 5 3.74 5 0 5 C0 3.35 0 1.7 0 0 Z " fill="#075C99" transform="translate(225,140)"/>
<path d="M0 0 C1.65 0 3.3 0 5 0 C5 3.63 5 7.26 5 11 C3.35 11 1.7 11 0 11 C0 7.37 0 3.74 0 0 Z " fill="#055B99" transform="translate(328,98)"/>
<path d="M0 0 C3.63 0 7.26 0 11 0 C11 1.65 11 3.3 11 5 C7.37 5 3.74 5 0 5 C0 3.35 0 1.7 0 0 Z " fill="#065D9B" transform="translate(225,98)"/>
<path d="M0 0 C3.63 0 7.26 0 11 0 C11 1.65 11 3.3 11 5 C7.37 5 3.74 5 0 5 C0 3.35 0 1.7 0 0 Z " fill="#055C99" transform="translate(25,74)"/>
<path d="M0 0 C0.33 0 0.66 0 1 0 C1 1.98 1 3.96 1 6 C-2.96 6 -6.92 6 -11 6 C-11 4.68 -11 3.36 -11 2 C-7.37 2 -3.74 2 0 2 C0 1.34 0 0.68 0 0 Z " fill="#10619C" transform="translate(369,385)"/>
<path d="M0 0 C1.98 0 3.96 0 6 0 C6 3.96 6 7.92 6 12 C5.67 12 5.34 12 5 12 C5 10.35 5 8.7 5 7 C3.35 7 1.7 7 0 7 C0 4.69 0 2.38 0 0 Z " fill="#2D719F" transform="translate(225,285)"/>
<path d="M0 0 C1.98 0 3.96 0 6 0 C6 1.98 6 3.96 6 6 C4.02 6 2.04 6 0 6 C0 4.02 0 2.04 0 0 Z " fill="#E7F1F3" transform="translate(85,321)"/>
<path d="M0 0 C1.98 0 3.96 0 6 0 C6 1.98 6 3.96 6 6 C4.02 6 2.04 6 0 6 C0 4.02 0 2.04 0 0 Z " fill="#E7F3F2" transform="translate(182,315)"/>
<path d="M0 0 C1.98 0 3.96 0 6 0 C6 1.98 6 3.96 6 6 C4.02 6 2.04 6 0 6 C0 4.02 0 2.04 0 0 Z " fill="#DDEBEB" transform="translate(79,315)"/>
<path d="M0 0 C1.98 0 3.96 0 6 0 C6 1.98 6 3.96 6 6 C4.02 6 2.04 6 0 6 C0 4.02 0 2.04 0 0 Z " fill="#E6F2F4" transform="translate(188,309)"/>
<path d="M0 0 C1.98 0 3.96 0 6 0 C6 1.98 6 3.96 6 6 C4.02 6 2.04 6 0 6 C0 4.02 0 2.04 0 0 Z " fill="#E6F1F4" transform="translate(73,309)"/>
<path d="M0 0 C1.98 0 3.96 0 6 0 C6 1.98 6 3.96 6 6 C4.02 6 2.04 6 0 6 C0 4.02 0 2.04 0 0 Z " fill="#E9F3F5" transform="translate(182,212)"/>
<path d="M0 0 C1.98 0 3.96 0 6 0 C6 1.98 6 3.96 6 6 C4.02 6 2.04 6 0 6 C0 4.02 0 2.04 0 0 Z " fill="#E4F0F2" transform="translate(176,206)"/>
<path d="M0 0 C5.61 0 11.22 0 17 0 C17 1.32 17 2.64 17 4 C15.02 4 13.04 4 11 4 C11 3.01 11 2.02 11 1 C7.37 1 3.74 1 0 1 C0 0.67 0 0.34 0 0 Z " fill="#1566A0" transform="translate(237,387)"/>
<path d="M0 0 C3.63 0 7.26 0 11 0 C11 0.99 11 1.98 11 3 C7.37 3 3.74 3 0 3 C0 2.01 0 1.02 0 0 Z " fill="#095E9A" transform="translate(37,388)"/>
<path d="M0 0 C3.63 0 7.26 0 11 0 C11 0.99 11 1.98 11 3 C7.37 3 3.74 3 0 3 C0 2.01 0 1.02 0 0 Z " fill="#075D9A" transform="translate(25,388)"/>
<path d="M0 0 C1.98 0 3.96 0 6 0 C6 1.65 6 3.3 6 5 C4.02 5 2.04 5 0 5 C0 3.35 0 1.7 0 0 Z " fill="#075C97" transform="translate(85,316)"/>
<path d="M0 0 C1.98 0 3.96 0 6 0 C6 1.65 6 3.3 6 5 C4.02 5 2.04 5 0 5 C0 3.35 0 1.7 0 0 Z " fill="#F6FCFB" transform="translate(85,207)"/>
<path d="M0 0 C1.65 0 3.3 0 5 0 C5 1.65 5 3.3 5 5 C3.35 5 1.7 5 0 5 C0 3.35 0 1.7 0 0 Z " fill="#055B98" transform="translate(110,382)"/>
<path d="M0 0 C1.65 0 3.3 0 5 0 C5 1.65 5 3.3 5 5 C3.35 5 1.7 5 0 5 C0 3.35 0 1.7 0 0 Z " fill="#065B9A" transform="translate(140,340)"/>
<path d="M0 0 C1.65 0 3.3 0 5 0 C5 1.65 5 3.3 5 5 C3.35 5 1.7 5 0 5 C0 3.35 0 1.7 0 0 Z " fill="#055A97" transform="translate(237,310)"/>
<path d="M0 0 C1.65 0 3.3 0 5 0 C5 1.65 5 3.3 5 5 C3.35 5 1.7 5 0 5 C0 3.35 0 1.7 0 0 Z " fill="#085D9A" transform="translate(25,261)"/>
<path d="M0 0 C1.65 0 3.3 0 5 0 C5 1.65 5 3.3 5 5 C3.35 5 1.7 5 0 5 C0 3.35 0 1.7 0 0 Z " fill="#FBFDFB" transform="translate(73,219)"/>
<path d="M0 0 C1.65 0 3.3 0 5 0 C5 1.65 5 3.3 5 5 C3.35 5 1.7 5 0 5 C0 3.35 0 1.7 0 0 Z " fill="#F7FCF9" transform="translate(79,213)"/>
<path d="M0 0 C1.65 0 3.3 0 5 0 C5 1.65 5 3.3 5 5 C3.35 5 1.7 5 0 5 C0 3.35 0 1.7 0 0 Z " fill="#0862A1" transform="translate(328,140)"/>
<path d="M0 0 C1.65 0 3.3 0 5 0 C5 1.65 5 3.3 5 5 C3.35 5 1.7 5 0 5 C0 3.35 0 1.7 0 0 Z " fill="#075A97" transform="translate(189,122)"/>
<path d="M0 0 C1.65 0 3.3 0 5 0 C5 1.65 5 3.3 5 5 C3.35 5 1.7 5 0 5 C0 3.35 0 1.7 0 0 Z " fill="#075E9C" transform="translate(19,19)"/>
<path d="M0 0 C1.65 0 3.3 0 5 0 C4.67 1.65 4.34 3.3 4 5 C2.68 5 1.36 5 0 5 C0 3.35 0 1.7 0 0 Z " fill="#085893" transform="translate(225,285)"/>
<path d="M0 0 C1.32 0 2.64 0 4 0 C4 1.65 4 3.3 4 5 C2.68 5 1.36 5 0 5 C0 3.35 0 1.7 0 0 Z " fill="#0560A0" transform="translate(92,195)"/>
<path d="M0 0 C0.99 0 1.98 0 3 0 C3 1.65 3 3.3 3 5 C3.66 5.33 4.32 5.66 5 6 C3.35 6 1.7 6 0 6 C0 4.02 0 2.04 0 0 Z " fill="#0F5A8F" transform="translate(182,206)"/>
<path d="M0 0 C0.99 0 1.98 0 3 0 C3 1.98 3 3.96 3 6 C2.01 6 1.02 6 0 6 C0 4.02 0 2.04 0 0 Z " fill="#09568C" transform="translate(182,322)"/>
<path d="M0 0 C0.99 0 1.98 0 3 0 C3 1.98 3 3.96 3 6 C2.01 6 1.02 6 0 6 C0 4.02 0 2.04 0 0 Z " fill="#0C568C" transform="translate(194,309)"/>
<path d="M0 0 C0.99 1.485 0.99 1.485 2 3 C4.05925139 3.72382467 4.05925139 3.72382467 6 4 C6 4.66 6 5.32 6 6 C4.02 6 2.04 6 0 6 C0 4.02 0 2.04 0 0 Z " fill="#C2DCE7" transform="translate(12,237)"/>
</svg>
